<?xml version="1.0" standalone="no"?>
<!DOCTYPE svg PUBLIC "-//W3C//DTD SVG 20010904//EN"
 "http://www.w3.org/TR/2001/REC-SVG-20010904/DTD/svg10.dtd">
<svg version="1.0" xmlns="http://www.w3.org/2000/svg"
 width="640.000000pt" height="640.000000pt" viewBox="0 0 640.000000 640.000000"
 preserveAspectRatio="xMidYMid meet">

<g transform="translate(0.000000,640.000000) scale(0.100000,-0.100000)"
fill="#000000" stroke="none">
<path d="M2595 5560 c-11 -4 -30 -10 -42 -15 -13 -4 -23 -14 -23 -23 0 -12 -3
-13 -12 -4 -15 15 -28 15 -28 1 0 -5 5 -7 10 -4 6 3 10 3 10 -1 0 -10 -70 -74
-81 -74 -6 0 -8 -4 -5 -8 2 -4 -12 -26 -32 -49 -38 -42 -73 -84 -118 -140 -15
-19 -22 -38 -18 -45 4 -7 3 -10 -1 -5 -5 4 -17 -1 -28 -10 -20 -17 -20 -17
-13 2 6 15 4 17 -5 8 -6 -6 -9 -19 -5 -29 6 -15 8 -15 27 2 20 18 20 17 -2
-21 -29 -51 -33 -56 -25 -27 4 12 3 22 -2 22 -5 0 -14 10 -21 23 -11 21 -8 5
6 -30 4 -11 3 -14 -5 -9 -9 6 -9 1 0 -18 9 -21 8 -29 -5 -44 -10 -10 -17 -22
-17 -26 0 -4 -8 -18 -17 -31 -10 -12 -24 -31 -30 -41 -7 -11 -24 -35 -37 -54
-13 -19 -43 -64 -65 -100 -23 -36 -61 -96 -86 -135 -24 -38 -44 -75 -45 -81 0
-6 -9 -23 -20 -37 -11 -14 -20 -33 -20 -42 0 -9 -4 -14 -9 -10 -5 3 -12 1 -16
-5 -3 -5 -1 -10 5 -10 6 0 5 -13 -5 -36 -15 -38 -55 -93 -55 -78 -1 19 -30
-59 -30 -80 0 -12 -7 -31 -15 -42 -8 -10 -14 -23 -15 -29 0 -5 4 -3 10 5 17
26 19 6 3 -30 -9 -19 -15 -38 -15 -42 1 -5 -2 -8 -8 -8 -5 0 -6 -8 -3 -17 5
-12 2 -15 -10 -10 -11 4 -14 2 -10 -9 3 -8 1 -20 -5 -27 -5 -6 -13 -31 -17
-54 -4 -24 -11 -43 -16 -43 -5 0 -9 -6 -9 -14 0 -8 -11 -36 -24 -63 -13 -26
-27 -64 -31 -83 -4 -19 -14 -56 -22 -82 -8 -26 -13 -54 -10 -63 4 -8 1 -17 -4
-21 -6 -4 -8 -22 -5 -43 4 -25 3 -30 -3 -16 -8 18 -9 17 -16 -10 -4 -16 -11
-46 -16 -66 -10 -40 -2 -99 13 -99 6 0 8 14 6 30 -3 17 -1 30 4 30 11 0 10
-62 -2 -80 -6 -10 -10 -11 -10 -2 0 22 -20 12 -20 -10 0 -17 -3 -19 -9 -10 -6
10 -10 7 -13 -12 -4 -22 -3 -24 9 -14 13 10 14 6 7 -28 -12 -62 -10 -197 2
-201 13 -4 -2 -125 -21 -168 -8 -16 -11 -33 -9 -37 3 -5 0 -7 -8 -6 -7 2 -13
-6 -13 -17 0 -10 -14 -35 -32 -54 -32 -35 -33 -35 -48 -16 -12 14 -18 16 -21
8 -8 -18 -24 -16 -24 2 0 8 -7 15 -17 15 -15 0 -15 -1 1 -19 10 -11 14 -25 10
-36 -5 -12 -4 -16 3 -12 6 4 19 4 28 1 15 -6 15 -8 -1 -25 -9 -10 -21 -16 -25
-13 -5 3 -9 0 -9 -5 0 -21 -34 -50 -54 -46 -82 16 -104 15 -109 -5 -7 -26 -27
-26 -34 0 -7 28 -30 25 -35 -5 -5 -24 -3 -25 51 -26 31 -1 59 -1 64 0 4 0 7
-2 7 -7 0 -9 -31 -29 -94 -59 -26 -13 -46 -26 -43 -29 3 -3 20 2 39 10 18 9
25 11 14 4 -51 -35 -63 -56 -71 -122 -3 -36 -11 -66 -16 -66 -6 0 -7 -4 -4
-10 3 -6 -1 -10 -9 -10 -9 0 -16 -9 -16 -20 0 -11 5 -20 10 -20 6 0 10 -5 10
-11 0 -6 -9 -9 -20 -6 -24 6 -25 -1 -4 -24 15 -17 14 -18 -15 -26 -30 -8 -31
-8 -10 -21 12 -8 18 -9 14 -3 -3 6 -2 11 4 11 5 0 12 -18 16 -40 4 -22 11 -42
16 -46 5 -3 18 -26 30 -51 16 -36 18 -48 8 -57 -9 -8 -11 -7 -6 6 3 9 0 19 -9
22 -8 3 -14 2 -14 -2 0 -13 19 -37 30 -38 5 -1 13 -2 16 -3 4 0 -9 -15 -27
-32 -29 -27 -30 -29 -7 -15 15 9 34 16 43 16 26 0 16 -17 -18 -30 -78 -30
-170 -83 -160 -93 10 -10 25 -8 19 2 -3 5 1 12 10 15 22 8 26 8 19 -4 -3 -6 1
-7 9 -4 9 3 13 10 10 15 -3 5 6 13 20 19 14 5 26 15 26 21 0 6 9 9 20 6 11 -3
20 -1 20 4 0 14 30 11 46 -6 13 -13 12 -17 -6 -35 -11 -11 -24 -20 -30 -20 -5
0 -10 -4 -10 -10 0 -6 9 -6 26 0 32 13 57 13 49 1 -3 -5 -30 -15 -60 -22 -54
-12 -96 -39 -62 -39 9 0 18 4 22 10 3 5 12 7 19 4 8 -3 17 0 21 6 5 8 11 8 21
-1 8 -7 14 -7 14 -1 0 5 9 12 20 15 25 6 25 0 2 -21 -10 -10 -13 -13 -6 -9 8
5 18 -1 28 -15 20 -28 20 -38 2 -38 -8 0 -18 -5 -21 -10 -4 -7 3 -9 22 -5 25
6 26 5 11 -8 -10 -8 -18 -18 -18 -23 0 -12 -99 -36 -113 -27 -6 3 -7 1 -3 -5
4 -7 1 -12 -8 -12 -9 0 -16 -7 -16 -15 0 -17 12 -19 26 -5 15 15 114 39 120
29 3 -5 -7 -11 -21 -15 -14 -3 -22 -11 -18 -17 4 -7 -4 -8 -25 -4 -18 4 -34 2
-38 -4 -3 -6 0 -10 7 -8 8 1 21 0 29 -1 8 -1 -8 -6 -36 -10 -56 -8 -123 -48
-102 -61 6 -4 17 -1 22 6 12 15 84 35 126 34 24 0 24 0 6 -14 -11 -8 -28 -13
-37 -10 -10 3 -29 3 -43 -1 -25 -6 -25 -7 -9 -20 17 -13 17 -14 -1 -7 -16 5
-18 3 -13 -19 6 -22 3 -28 -23 -37 -37 -12 -69 -41 -48 -42 7 0 -3 -6 -22 -13
-28 -10 -37 -10 -48 1 -16 15 -32 17 -32 3 0 -5 8 -10 18 -10 26 -1 -4 -16
-48 -24 l-35 -6 30 20 c18 12 24 20 14 20 -8 0 -19 -4 -25 -9 -5 -4 -22 -12
-38 -15 -26 -6 -28 -5 -17 8 11 13 11 16 -1 16 -18 0 -48 -31 -48 -50 0 -9 5
-7 16 6 8 10 13 13 9 6 -7 -15 -4 -15 29 -2 17 6 26 6 26 0 0 -6 -8 -10 -19
-10 -22 0 -46 -25 -32 -34 5 -3 11 -2 13 4 2 6 13 12 26 15 12 2 27 7 32 10 5
3 18 8 27 10 10 2 38 8 63 14 65 15 78 14 54 -4 -10 -9 -13 -14 -5 -13 7 2 16
-3 19 -11 3 -10 -2 -12 -22 -7 -17 4 -39 0 -66 -14 -45 -23 -52 -35 -16 -26
20 5 24 2 28 -24 4 -25 1 -30 -17 -30 -26 0 -62 -35 -46 -45 6 -3 11 -2 11 3
0 6 33 24 74 41 77 32 122 42 72 16 -15 -8 -34 -15 -40 -15 -7 0 -21 -7 -32
-16 -13 -11 -14 -14 -3 -11 9 3 21 -4 28 -16 11 -17 11 -21 -4 -29 -14 -9 -14
-12 7 -29 12 -11 30 -32 39 -46 16 -24 16 -28 1 -50 -8 -14 -17 -36 -18 -50
-2 -14 -12 -32 -23 -40 -12 -8 -21 -21 -21 -29 0 -8 -7 -17 -16 -21 -8 -3 -20
-16 -25 -29 -4 -13 -16 -24 -24 -24 -12 0 -15 -6 -10 -20 7 -21 -7 -25 -85
-22 -30 1 -31 0 -10 -7 22 -6 23 -8 7 -14 -10 -4 -15 -11 -12 -17 4 -7 448
-10 1317 -10 l1311 0 -25 23 c-14 13 -29 39 -33 58 -4 19 -18 55 -31 80 -24
49 -56 170 -47 179 3 3 8 -1 10 -8 3 -6 10 -9 16 -5 6 4 8 0 4 -9 -3 -10 3
-19 19 -27 26 -11 32 -3 12 17 -19 19 5 13 32 -8 14 -11 31 -20 38 -20 6 0 12
-4 12 -9 0 -5 12 -12 27 -16 15 -3 44 -15 65 -25 21 -10 35 -13 31 -7 -4 7 0
8 11 4 10 -4 20 -7 22 -7 2 0 4 -7 4 -16 0 -10 -5 -14 -16 -10 -16 6 -12 -6
12 -34 10 -12 10 -19 -3 -35 -15 -19 -15 -19 -9 10 6 28 5 29 -9 11 -8 -10
-12 -22 -10 -27 3 -4 1 -10 -5 -14 -17 -10 -11 -25 8 -19 9 2 7 -1 -5 -7 -17
-9 -23 -21 -23 -45 l0 -33 200 -1 c191 0 200 1 200 20 0 10 5 22 10 25 6 4 8
10 5 15 -3 4 5 6 17 2 16 -4 18 -7 7 -11 -20 -8 -18 -35 4 -39 13 -3 17 2 15
14 -2 11 4 20 16 22 16 3 18 0 12 -22 -5 -19 -3 -26 9 -26 8 0 15 9 15 20 0
15 7 20 25 20 14 0 25 -4 25 -9 0 -5 -10 -7 -22 -4 -23 4 -23 4 -3 -11 17 -15
84 -16 598 -16 318 0 576 4 574 8 -3 4 8 17 24 30 27 22 28 22 24 2 -2 -11 0
-20 4 -20 5 0 11 14 15 30 5 27 10 30 41 30 19 0 35 -4 35 -9 0 -5 16 -9 35
-8 31 2 33 4 18 15 -10 7 -23 10 -30 8 -7 -3 -13 -1 -13 4 0 5 -10 10 -22 13
-13 2 -1 3 25 4 29 0 43 -3 35 -8 -18 -12 -5 -11 28 1 37 14 164 22 164 10 0
-5 12 -2 28 6 15 7 32 14 39 14 14 0 18 7 27 45 5 24 4 26 -4 12 -6 -9 -15
-15 -21 -12 -5 4 -9 1 -9 -4 0 -6 5 -11 10 -11 25 0 6 -17 -30 -27 -25 -6 -40
-7 -40 -1 0 6 9 12 20 15 11 3 20 10 20 15 0 13 -62 -1 -73 -16 -6 -8 -10 -8
-14 2 -7 17 -50 15 -57 -3 -3 -9 -19 -15 -41 -15 -39 0 -42 4 -18 28 12 12 18
13 21 4 5 -17 19 -15 19 4 0 12 -7 15 -31 10 -17 -4 -35 -12 -41 -19 -5 -7
-18 -11 -27 -9 -10 2 -18 -1 -18 -8 0 -7 -11 -5 -30 5 -43 22 -40 51 5 53 19
1 35 -3 35 -9 0 -6 -8 -8 -17 -5 -10 3 -25 1 -33 -5 -13 -9 -12 -10 3 -5 10 3
17 0 17 -9 0 -11 4 -11 28 1 16 7 39 15 53 17 13 2 24 10 24 18 0 19 20 39 39
39 8 0 18 4 21 10 6 9 -22 8 -70 -4 -11 -2 -22 -5 -24 -5 -2 -1 3 -9 10 -18
13 -17 13 -17 -6 -1 -26 22 -85 21 -86 -1 0 -12 -3 -11 -8 4 l-8 20 -5 -20
c-5 -17 -6 -16 -7 5 -1 19 -4 21 -13 12 -18 -18 -28 -15 -28 8 0 13 5 18 15
14 8 -4 21 -1 29 5 7 6 16 8 19 4 4 -3 7 -1 7 5 0 5 -6 13 -12 15 -10 4 -10 8
2 16 8 5 19 7 25 3 14 -10 59 -9 66 2 4 5 13 5 20 0 22 -13 41 -14 36 -1 -2 7
-12 11 -22 10 -11 -1 -14 2 -7 9 11 11 56 -8 48 -21 -3 -4 14 -7 37 -5 23 1
33 0 23 -3 -19 -5 -18 -6 5 -19 18 -10 20 -13 7 -14 -11 0 -15 -5 -12 -15 5
-11 8 -12 18 -2 7 7 15 19 19 27 4 11 6 11 6 2 1 -7 6 -10 12 -7 20 13 129 11
129 -2 0 -7 8 -13 18 -14 11 -1 9 -3 -7 -8 -14 -4 -27 -13 -29 -21 -4 -12 -2
-13 9 -3 8 7 25 10 37 6 16 -4 21 -2 17 8 -4 10 5 14 34 14 21 0 37 -3 35 -6
-6 -11 49 -30 97 -33 l44 -4 -32 14 c-23 10 -31 19 -26 29 3 9 12 14 20 11 8
-3 17 -6 19 -6 2 0 4 -7 4 -15 0 -18 5 -18 29 -5 12 6 30 6 50 0 19 -5 29 -5
26 1 -4 5 -1 9 4 9 18 0 12 -29 -8 -40 -24 -12 -44 -13 -37 -1 3 5 -3 11 -14
14 -22 6 -37 -8 -18 -16 7 -3 -23 -6 -67 -6 -44 0 -91 -2 -105 -5 -68 -14
-103 -26 -114 -37 -8 -9 -6 -10 9 -4 52 20 161 34 271 35 133 0 194 -7 172
-21 -10 -7 -10 -9 3 -9 9 0 29 -13 45 -30 16 -16 35 -30 42 -30 6 0 12 -4 12
-10 0 -5 5 -10 10 -10 6 0 16 -4 23 -10 7 -5 28 -22 47 -37 l35 -28 -38 53
-39 52 26 0 c41 0 105 46 106 76 0 16 -49 66 -59 60 -5 -3 -15 2 -22 11 -10
12 -10 14 -1 9 6 -4 12 -3 12 3 0 12 -40 36 -40 24 -1 -19 -40 41 -40 61 1 19
2 19 11 4 5 -10 14 -18 18 -18 5 0 11 8 13 18 4 13 -2 17 -28 19 -24 1 -31 -2
-28 -12 4 -10 -5 -14 -35 -13 -23 0 -41 2 -41 4 0 1 5 15 10 30 10 26 11 26
24 8 8 -10 12 -23 9 -28 -4 -5 -1 -6 6 -1 20 12 3 54 -39 99 -40 42 -48 56
-30 56 6 0 10 -4 10 -8 0 -5 9 -19 20 -32 16 -18 20 -20 20 -7 0 16 -77 97
-92 97 -13 0 3 -28 19 -34 12 -5 13 -9 3 -21 -14 -17 -30 -20 -30 -4 0 5 5 7
10 4 6 -3 10 -2 10 2 0 12 -38 43 -43 35 -2 -4 -2 -2 -1 5 2 7 -7 15 -19 19
-23 7 -57 41 -57 56 0 5 7 2 16 -6 23 -24 43 -20 36 6 -4 15 -2 19 7 13 7 -4
10 -17 7 -30 -8 -30 17 -53 39 -35 18 15 20 35 3 24 -7 -5 -8 -3 -3 6 7 11 10
10 19 -1 14 -18 48 -21 58 -6 15 25 19 -3 4 -32 -11 -20 -12 -32 -6 -36 18
-11 39 15 34 41 -3 16 -1 23 6 19 5 -3 10 -1 10 5 0 6 5 8 11 4 8 -5 8 -9 -1
-14 -9 -5 -9 -9 -1 -14 6 -4 9 -11 7 -15 -3 -3 4 -7 15 -7 23 0 25 12 4 20 -8
3 -15 9 -14 13 4 24 -2 35 -17 29 -10 -4 -30 4 -50 19 -31 24 -48 23 -24 -1 6
-6 4 -10 -8 -10 -13 0 -18 8 -18 28 0 24 2 26 20 16 12 -6 27 -15 34 -21 8 -6
23 -13 35 -14 20 -3 19 -1 -6 25 -15 16 -24 32 -20 36 5 5 -1 6 -13 2 -14 -4
-30 1 -48 15 -16 13 -33 18 -44 14 -15 -6 -15 -8 6 -25 l23 -19 -26 3 c-14 1
-28 6 -33 11 -4 4 -1 4 7 0 11 -6 13 -4 7 10 -4 11 -2 22 6 27 10 6 8 8 -4 8
-10 0 -18 4 -18 10 0 5 -7 7 -15 4 -21 -8 -19 -32 3 -37 13 -4 11 -5 -5 -6
-14 -1 -23 5 -23 14 0 18 -16 20 -23 3 -3 -7 -6 -4 -6 7 -1 17 -3 17 -11 5 -8
-13 -10 -13 -10 2 0 14 6 16 30 12 34 -7 34 -8 19 34 -6 17 -20 34 -31 38 -17
5 -18 8 -7 16 11 8 11 8 -1 4 -8 -3 -23 -9 -33 -12 -15 -6 -14 -8 9 -20 14 -8
33 -14 40 -14 8 0 14 -7 14 -15 0 -13 -6 -12 -40 5 -21 11 -51 20 -65 20 -14
0 -25 4 -25 9 0 5 -9 7 -20 4 -24 -6 -29 24 -5 33 27 11 16 27 -14 21 -15 -3
-33 -1 -39 5 -8 8 -13 7 -18 -7 -5 -12 3 -27 29 -52 21 -19 37 -31 37 -27 0 3
6 1 13 -5 8 -6 16 -8 20 -5 10 11 77 -17 77 -32 0 -17 -17 -19 -22 -3 -6 17
-78 19 -78 2 0 -7 6 -13 14 -13 8 0 17 -7 20 -15 3 -9 11 -15 18 -14 20 3 78
-22 78 -33 0 -6 9 -8 21 -5 16 4 18 3 9 -8 -9 -11 -17 -11 -36 -3 -13 6 -24
16 -24 21 0 6 -3 7 -6 4 -4 -3 -15 -2 -25 4 -14 7 -25 6 -41 -6 -13 -8 -17
-15 -11 -15 14 0 25 -43 13 -50 -6 -3 8 -17 30 -31 22 -13 40 -31 40 -39 0
-13 1 -13 10 0 6 10 4 17 -8 24 -35 20 -53 44 -59 81 -6 36 -5 37 15 26 18
-10 20 -15 10 -30 -14 -22 0 -46 32 -54 18 -5 18 -4 3 19 -18 29 -12 40 14 25
10 -6 13 -11 5 -11 -17 0 18 -49 35 -50 7 0 22 -13 34 -30 12 -16 26 -27 30
-24 4 2 11 -17 14 -43 4 -27 9 -56 12 -65 5 -20 -13 -25 -20 -5 -3 6 -6 8 -6
2 -1 -15 11 -30 34 -43 19 -10 19 -11 1 -18 -13 -5 -23 -1 -32 11 -8 10 -14
15 -14 9 0 -5 -7 0 -15 10 -8 11 -15 16 -15 10 0 -5 -4 -4 -8 3 -5 8 -13 9
-22 3 -12 -8 -12 -10 -1 -10 11 0 11 -3 1 -15 -10 -12 -8 -16 15 -25 14 -5 31
-10 36 -10 5 0 9 -4 9 -8 0 -5 10 -14 23 -20 17 -8 18 -11 5 -11 -10 -1 -18
-6 -18 -12 0 -5 4 -7 10 -4 6 3 10 -4 10 -17 0 -16 -3 -19 -9 -10 -4 8 -11 13
-15 13 -3 -1 -8 0 -11 0 -3 1 -8 2 -12 3 -30 7 -53 19 -53 27 0 16 -27 39 -46
39 -13 0 -15 3 -7 11 9 9 19 6 39 -10 15 -12 30 -19 33 -15 3 3 -4 14 -17 24
-15 13 -18 20 -10 24 7 3 3 3 -9 0 -23 -5 -32 9 -13 21 6 4 8 16 4 28 -6 19
-5 20 10 8 9 -8 16 -9 16 -3 0 6 -6 15 -12 19 -7 4 -13 14 -13 22 0 8 -7 17
-15 19 -13 4 -13 3 -2 -10 8 -10 9 -19 3 -22 -5 -4 -12 -2 -15 3 -4 5 -24 12
-47 16 -33 6 -39 10 -37 28 3 18 -3 22 -42 28 -25 4 -52 8 -60 9 -8 1 -23 2
-33 1 -16 -1 -16 -3 -1 -26 16 -24 16 -25 -2 -18 -11 3 -29 13 -41 21 -12 7
-26 11 -30 9 -5 -3 -10 4 -10 15 -2 25 -14 37 -20 20 -3 -6 -8 -10 -12 -7 -16
9 -72 15 -67 7 3 -5 25 -12 48 -16 29 -5 38 -10 29 -15 -7 -5 -11 -13 -7 -19
4 -6 -2 -8 -15 -5 -16 4 -17 8 -7 14 10 7 9 9 -4 9 -10 0 -18 -4 -18 -9 0 -5
-10 -7 -22 -3 -21 5 -21 6 -2 13 10 4 14 8 7 8 -6 1 -18 4 -27 7 -12 5 -16 0
-16 -20 0 -22 4 -26 31 -26 16 0 28 -4 25 -8 -2 -4 16 -8 42 -9 26 -1 63 -4
82 -8 19 -4 61 -7 92 -7 39 0 58 -4 62 -14 4 -10 -2 -12 -24 -7 -19 3 -36 0
-47 -8 -12 -10 -15 -10 -9 -1 5 9 0 12 -21 11 -15 -1 -43 1 -61 5 -25 6 -32 5
-30 -6 2 -7 8 -17 13 -21 6 -5 4 -7 -5 -4 -8 2 -15 10 -15 18 0 9 -10 13 -30
12 -16 -1 -34 2 -41 8 -8 6 -14 4 -18 -7 -6 -16 -8 -15 -20 2 -11 15 -28 19
-88 20 -40 1 -80 -2 -90 -7 -18 -10 -78 7 -78 22 0 5 9 9 21 9 17 0 18 2 7 13
-20 20 -46 27 -52 14 -4 -7 -4 0 -3 15 3 23 1 27 -17 25 -14 -1 -20 3 -18 12
2 8 -2 17 -7 20 -6 4 -12 24 -15 44 -4 35 -3 37 17 32 19 -5 20 -5 5 5 -10 6
-18 22 -18 35 0 13 -5 27 -11 31 -7 4 -9 28 -5 68 3 33 3 55 0 49 -8 -18 -24
-16 -24 2 0 8 3 15 6 15 14 0 114 -32 114 -36 0 -3 -7 -12 -15 -20 -8 -9 -15
-11 -15 -5 0 16 -53 -16 -56 -34 -1 -8 5 -15 13 -15 13 0 13 -3 3 -15 -10 -12
-10 -15 4 -15 9 0 16 -4 16 -10 0 -5 -4 -10 -10 -10 -5 0 -10 -4 -10 -9 0 -5
18 -8 40 -8 45 1 50 9 20 30 -16 11 -19 21 -14 42 4 15 15 30 25 32 11 3 19
12 19 19 0 8 4 14 10 14 5 0 7 -6 4 -14 -3 -9 4 -16 21 -20 14 -4 24 -10 21
-14 -2 -4 2 -16 10 -27 8 -10 14 -15 14 -9 0 5 5 2 10 -6 8 -13 10 -13 10 2 0
17 2 17 35 1 26 -13 38 -14 47 -5 8 8 5 9 -11 5 -13 -3 -21 -1 -21 8 0 7 -3 9
-6 6 -9 -9 -46 12 -40 22 3 5 17 6 31 3 14 -2 25 0 25 6 0 6 9 10 20 9 11 -1
20 -7 20 -14 0 -7 8 -13 17 -13 15 0 14 -2 -3 -15 -19 -14 -18 -14 4 -15 14 0
22 -6 22 -17 0 -15 2 -15 9 -4 6 9 6 22 0 32 -7 14 -5 16 11 12 27 -7 36 -23
19 -34 -10 -6 -8 -9 9 -9 13 0 20 4 17 10 -3 6 1 10 9 10 9 0 16 -4 16 -10 0
-5 8 -10 18 -10 26 0 60 -32 54 -49 -3 -8 5 -6 18 7 17 16 28 19 45 12 18 -7
25 -5 29 7 6 13 9 13 32 -2 18 -11 29 -14 36 -7 7 7 -2 16 -28 27 -25 10 -40
12 -42 5 -2 -5 -16 -10 -32 -10 -16 0 -30 -6 -33 -12 -3 -7 -5 -4 -4 8 1 12 7
21 16 20 8 -1 16 8 18 19 1 11 0 14 -3 8 -3 -8 -15 -11 -30 -7 -19 5 -24 2
-25 -12 0 -11 -3 -14 -6 -6 -2 6 -9 10 -14 6 -5 -3 -9 -1 -9 5 0 6 -21 23 -47
38 -27 15 -50 30 -53 34 -3 3 -17 5 -32 5 -23 -1 -25 1 -16 18 9 16 7 18 -6
13 -10 -4 -16 -1 -16 9 0 9 -9 18 -20 21 -11 3 -20 9 -20 14 0 6 -10 13 -22
18 -12 4 -17 10 -12 14 6 3 26 -7 45 -24 60 -51 129 -75 129 -45 0 8 4 16 10
18 5 2 7 13 4 25 -4 13 -10 21 -14 18 -5 -3 -16 5 -25 17 -8 13 -19 22 -23 20
-4 -2 -11 5 -17 14 -13 24 -38 43 -47 38 -5 -3 -8 0 -8 7 0 6 8 9 20 6 27 -7
24 4 -6 28 -14 11 -41 35 -60 52 -20 19 -45 33 -59 33 -14 0 -28 6 -31 14 -3
7 -17 14 -31 14 -14 0 -30 7 -35 16 -6 12 -23 16 -62 16 -44 0 -56 4 -80 29
-19 20 -34 27 -51 23 -14 -2 -25 -9 -25 -14 0 -6 6 -8 13 -5 7 3 26 -1 42 -9
l30 -13 -35 4 c-19 2 -48 6 -64 11 -28 7 -29 8 -8 15 34 13 27 31 -10 27 -27
-3 -36 2 -55 32 -12 19 -27 40 -32 46 -5 7 -7 14 -4 17 2 3 0 14 -7 24 -10 16
-11 16 -6 1 8 -25 1 -22 -19 9 -16 24 -16 26 0 20 9 -4 15 -4 13 0 -25 53 -43
83 -50 83 -13 0 -9 -18 9 -48 15 -24 13 -23 -20 8 -21 19 -35 40 -33 47 3 7 1
12 -5 10 -13 -3 -75 81 -65 90 3 4 27 -15 51 -43 25 -27 42 -40 38 -30 -6 19
-6 19 28 -1 19 -11 33 -26 31 -32 -1 -7 2 -10 8 -6 5 3 19 1 31 -6 17 -9 20
-8 17 2 -6 17 -97 71 -111 66 -14 -4 -38 20 -62 66 -16 31 -18 41 -7 57 10 17
10 20 -5 21 -10 1 -22 1 -27 0 -4 -1 -14 6 -21 16 -7 10 -17 14 -21 10 -5 -4
-2 -12 6 -17 13 -8 13 -10 1 -10 -12 0 -12 -3 -3 -12 17 -17 15 -33 -3 -18 -9
7 -15 28 -14 49 0 20 -4 58 -10 86 -13 57 -8 80 15 71 9 -3 26 5 42 19 20 19
23 25 11 25 -9 0 -22 -6 -28 -14 -7 -8 -20 -13 -29 -11 -9 2 -20 4 -25 4 -4 1
-12 12 -18 25 -6 13 -19 26 -29 29 -11 3 -24 28 -38 73 -27 93 -46 177 -44
190 1 6 -4 17 -12 23 -12 10 -13 6 -4 -31 5 -23 7 -50 5 -60 -3 -10 0 -16 6
-15 7 1 14 -21 18 -55 3 -32 14 -69 23 -82 20 -31 21 -57 2 -50 -22 8 -71 186
-79 282 -1 20 2 32 10 32 13 0 16 9 14 45 0 15 3 12 15 -10 l15 -30 -6 34 c-3
18 -5 43 -6 55 -1 19 -2 18 -9 -4 -4 -14 -9 -18 -9 -10 -1 8 -10 26 -21 40
-11 14 -20 35 -20 47 0 34 -23 123 -30 118 -3 -2 -5 10 -3 28 2 25 1 28 -6 12
-7 -17 -10 -13 -21 25 -7 25 -16 58 -21 74 -5 16 -9 46 -9 67 0 31 3 37 16 32
14 -5 16 1 11 46 -5 46 -4 51 9 40 9 -7 13 -21 11 -30 -3 -10 2 -24 10 -30 12
-11 13 -8 7 17 -4 16 -11 36 -15 46 -12 22 -41 282 -36 316 4 25 4 25 6 -5 0
-17 5 -34 10 -37 5 -3 6 -25 4 -50 -3 -24 -1 -46 4 -49 11 -7 8 99 -6 178 -22
124 -24 141 -23 184 2 74 22 74 24 1 3 -103 12 -194 27 -269 6 -29 11 -75 11
-102 0 -26 3 -50 8 -53 4 -2 6 14 5 37 -2 39 -2 39 6 12 27 -95 69 -205 73
-189 2 10 12 -16 22 -59 10 -43 20 -76 22 -74 3 3 -2 34 -10 71 -9 36 -13 73
-9 82 5 12 3 15 -6 9 -10 -6 -12 0 -7 26 4 25 4 29 -3 14 -9 -19 -10 -18 -12
5 -1 14 -3 38 -3 54 -1 16 -7 31 -13 33 -7 3 -10 10 -7 18 3 7 -3 26 -13 41
-12 19 -13 25 -4 20 9 -6 12 -5 8 1 -15 24 -39 173 -34 216 2 27 1 43 -3 37
-4 -6 -7 7 -7 30 0 33 3 40 15 35 13 -5 13 -3 -1 13 -18 20 -29 69 -47 217 -6
50 -17 115 -25 145 -7 30 -20 87 -28 125 -39 183 -51 225 -60 213 -6 -9 -7 -8
-4 3 3 9 2 43 -2 75 -9 61 -5 88 10 78 5 -3 8 7 8 23 -1 17 -3 21 -6 11 -9
-34 -19 -18 -36 55 -19 75 -96 225 -148 285 -16 18 -29 37 -29 43 0 6 -8 18
-17 27 -15 16 -76 17 -727 18 -391 1 -720 -2 -731 -6z m1420 -75 c17 -13 24
-24 18 -25 -7 0 -13 3 -13 8 0 4 -12 15 -27 24 -16 10 -23 18 -18 18 6 0 24
-11 40 -25z m-862 -7 c4 -10 8 -10 15 0 8 12 14 12 38 0 16 -7 59 -13 95 -13
37 0 65 -3 63 -7 -2 -3 2 -9 8 -12 7 -3 2 -3 -12 0 -18 3 -21 2 -10 -4 22 -13
89 -25 70 -12 -12 8 -11 10 7 10 36 0 71 -18 78 -39 3 -12 15 -21 26 -21 10 0
19 -5 19 -11 0 -6 7 -8 16 -5 14 5 15 4 4 -9 -15 -18 2 -45 29 -45 21 -1 61
-34 61 -51 0 -7 12 -25 26 -40 20 -21 28 -43 35 -98 5 -40 15 -81 23 -93 9
-12 12 -33 9 -53 -4 -26 -1 -37 16 -51 11 -10 24 -33 27 -51 3 -17 14 -39 25
-49 10 -9 16 -21 13 -25 -3 -5 2 -6 10 -3 9 3 16 1 16 -5 0 -6 7 -11 15 -11 9
0 25 -9 37 -20 26 -24 13 -26 -31 -4 -25 13 -47 15 -94 10 -69 -8 -168 -38
-204 -61 -13 -9 -28 -13 -33 -10 -6 3 -10 1 -10 -4 0 -6 -9 -11 -20 -11 -11 0
-20 -6 -20 -14 0 -24 -52 -79 -60 -65 -5 8 -10 5 -14 -8 -4 -12 -15 -31 -26
-43 -11 -12 -17 -27 -14 -31 3 -5 -3 -9 -13 -9 -15 0 -16 -2 -3 -10 10 -6 11
-10 3 -10 -9 0 -10 -7 -3 -24 5 -13 6 -26 3 -29 -3 -3 -1 -11 3 -18 4 -7 9
-23 10 -35 2 -19 52 -120 74 -149 4 -5 11 -25 15 -42 3 -18 11 -33 16 -33 5 0
9 -15 9 -33 0 -18 4 -37 8 -42 10 -11 32 -129 32 -170 0 -30 -50 -100 -75
-104 -8 -1 -34 -2 -57 -2 -24 0 -80 0 -125 0 -51 0 -92 -5 -109 -13 l-27 -15
27 -24 c20 -19 40 -25 94 -30 73 -5 111 -21 187 -79 27 -21 66 -41 85 -44 67
-11 140 -35 140 -45 0 -6 -12 -8 -27 -5 -88 16 -127 16 -177 2 -30 -9 -56 -22
-58 -28 -4 -10 -14 -9 -46 1 -33 11 -50 12 -89 1 -78 -20 -81 -21 -58 -30 28
-12 43 -12 25 1 -11 7 -7 9 18 5 20 -3 32 0 32 7 0 7 5 4 11 -5 5 -10 18 -18
27 -18 32 -1 -10 -17 -60 -23 -58 -8 -78 -1 -78 25 0 18 -4 20 -32 13 -18 -3
-70 -10 -115 -14 -75 -6 -116 -21 -101 -37 4 -3 66 -9 140 -14 73 -4 149 -13
168 -19 19 -6 88 -11 152 -11 97 0 116 -2 112 -14 -3 -8 -15 -16 -26 -19 -13
-4 -17 -10 -12 -18 4 -7 3 -10 -4 -5 -6 3 -18 -2 -28 -11 -18 -18 -24 -20 -82
-25 -18 -2 -37 -10 -42 -18 -9 -13 -11 -13 -20 0 -6 9 -10 10 -10 3 0 -6 -2
-17 -5 -25 -5 -14 37 -38 68 -38 10 0 25 -7 33 -15 14 -13 12 -15 -14 -15 -32
0 -58 -22 -47 -40 3 -5 -1 -13 -9 -16 -23 -9 -8 -26 16 -18 13 4 24 1 29 -7 7
-11 9 -11 9 -1 0 15 60 13 60 -3 0 -5 4 -4 9 4 6 9 15 11 27 6 20 -9 40 -8 64
2 22 9 105 32 107 29 2 -1 4 -11 6 -22 2 -10 10 -31 17 -46 9 -19 10 -31 3
-40 -6 -7 -13 -25 -17 -39 -8 -35 -99 -128 -157 -160 -40 -23 -75 -32 -154
-42 -12 -1 -19 3 -17 11 3 15 -3 15 -26 1 -26 -16 -150 13 -235 55 -37 19 -70
30 -73 25 -3 -5 -23 0 -44 11 -22 11 -48 20 -60 20 -18 0 -56 16 -70 30 -11
11 -46 31 -72 41 -16 6 -28 15 -28 20 0 5 -5 9 -10 9 -11 0 -130 90 -168 128
-13 12 -27 22 -33 22 -6 0 -7 5 -4 10 3 6 -1 13 -10 16 -17 7 -76 117 -93 174
-6 19 -20 67 -32 105 -22 71 -25 82 -55 190 -9 33 -18 107 -19 165 -2 58 -12
156 -21 218 -14 88 -16 141 -10 247 4 74 11 138 16 141 5 3 9 16 9 28 0 24 15
65 52 146 11 25 21 52 22 60 1 8 8 26 16 40 8 14 16 32 17 40 4 30 29 86 56
125 15 22 56 84 91 137 34 54 66 95 70 91 4 -4 4 0 1 9 -4 9 0 18 10 22 10 3
14 2 9 -5 -3 -6 3 -5 15 3 12 7 21 18 21 25 0 6 9 15 21 18 11 4 18 9 15 13
-8 8 34 52 50 52 7 0 22 12 33 26 12 15 21 23 21 19 0 -5 16 9 36 29 29 29 42
36 60 32 17 -5 24 -2 24 8 0 20 34 37 57 30 15 -5 15 -4 3 5 -13 9 -13 11 2
11 9 0 18 4 20 8 3 10 106 60 125 61 6 1 14 -5 16 -11z m946 -92 c0 -6 -5 -1
-11 12 -6 12 -15 22 -20 22 -4 0 -8 6 -8 13 1 6 10 1 20 -12 11 -13 20 -28 19
-35z m121 -191 c4 -11 12 -32 19 -47 6 -16 7 -28 2 -28 -5 0 -7 -10 -5 -22 4
-21 4 -22 -5 -3 -5 11 -10 31 -10 46 -1 14 -5 29 -10 35 -5 5 -11 32 -14 59
-6 46 -5 48 5 15 5 -19 14 -44 18 -55z m-520 35 c0 -5 -2 -10 -4 -10 -3 0 -8
5 -11 10 -3 6 -1 10 4 10 6 0 11 -4 11 -10z m95 -710 c3 -5 0 -10 -7 -11 -31
-2 -77 -11 -125 -24 -64 -19 -68 -19 -49 0 8 8 21 15 30 15 8 0 18 5 21 10 4
6 16 8 27 4 14 -4 18 -2 14 5 -5 7 7 11 38 11 25 0 48 -4 51 -10z m-7 -57 c-5
-29 -159 -62 -187 -41 -14 11 -14 11 -3 -3 10 -14 8 -19 -12 -33 -36 -23 -43
-20 -16 9 13 14 20 25 15 25 -5 0 -3 6 3 13 21 20 104 45 155 46 40 1 48 -2
45 -16z m-236 -65 c-7 -7 -12 -18 -12 -24 0 -7 -13 -26 -30 -42 -45 -45 -38
-9 7 39 20 21 39 39 42 39 3 0 0 -5 -7 -12z m811 -56 c4 -21 3 -31 -3 -27 -6
3 -10 20 -10 37 0 38 5 34 13 -10z m-723 -2 c0 -5 -7 -10 -15 -10 -8 0 -15 5
-15 10 0 6 7 10 15 10 8 0 15 -4 15 -10z m44 -16 c3 -8 2 -12 -4 -9 -6 3 -10
-1 -10 -9 0 -9 -8 -16 -17 -16 -15 0 -16 -2 -3 -10 20 -13 -1 -13 -37 0 -26 9
-27 9 -9 -5 11 -8 24 -15 30 -15 5 0 7 -3 4 -6 -4 -3 -21 2 -38 11 -18 9 -45
15 -61 13 -24 -4 -26 -2 -18 13 12 23 43 32 102 30 26 -1 47 3 47 9 0 15 7 12
14 -6z m341 -44 c3 -5 1 -10 -4 -10 -6 0 -11 5 -11 10 0 6 2 10 4 10 3 0 8 -4
11 -10z m-355 -79 c62 -15 86 -17 140 -9 100 15 137 12 190 -16 19 -11 40 -26
47 -35 16 -21 6 -137 -18 -215 -11 -32 -19 -63 -19 -69 0 -5 -10 -19 -22 -31
-13 -12 -37 -38 -55 -57 -49 -53 -60 -59 -100 -62 -21 -1 -41 -6 -45 -11 -4
-6 -15 5 -25 23 -28 52 -97 155 -108 163 -5 4 -15 1 -21 -7 -10 -13 -14 -10
-28 19 -28 60 -14 77 23 30 25 -32 26 -26 6 23 -8 19 -15 51 -15 69 0 19 -5
34 -11 34 -6 0 -9 9 -6 20 3 11 2 20 -2 20 -4 0 -13 16 -21 35 -8 19 -17 35
-21 35 -8 0 -25 46 -28 78 0 7 -6 10 -13 6 -7 -4 -8 -3 -4 4 5 8 18 5 44 -8
21 -11 71 -28 112 -39z m380 9 c0 -11 7 -20 15 -20 8 0 15 -4 15 -10 0 -14
-23 -13 -38 2 -15 15 -16 48 -2 48 6 0 10 -9 10 -20z m-1860 -54 c0 -3 -8 -12
-17 -22 -16 -16 -16 -16 2 -11 31 10 48 -5 31 -28 -12 -16 -11 -25 2 -64 21
-58 21 -58 32 -41 8 13 10 12 10 -2 0 -9 3 -24 7 -34 4 -12 3 -15 -5 -10 -7 4
-12 2 -12 -3 0 -6 4 -11 10 -11 5 0 7 -7 4 -15 -4 -8 -1 -15 5 -15 6 0 11 -18
11 -42 0 -24 7 -68 15 -98 22 -84 20 -115 -11 -128 -38 -18 -98 -4 -131 30
-27 28 -28 34 -31 141 -5 145 -4 160 5 237 8 62 32 117 46 103 4 -3 7 -1 7 5
0 7 5 12 10 12 6 0 10 -2 10 -4z m2157 -328 c-3 -7 -5 -2 -5 12 0 14 2 19 5
13 2 -7 2 -19 0 -25z m-10 -100 c-3 -7 -5 -2 -5 12 0 14 2 19 5 13 2 -7 2 -19
0 -25z m-2730 -40 c-3 -8 -6 -5 -6 6 -1 11 2 17 5 13 3 -3 4 -12 1 -19z m-10
-55 c-3 -10 -5 -4 -5 12 0 17 2 24 5 18 2 -7 2 -21 0 -30z m2292 -47 c14 -9 7
-93 -9 -110 -5 -5 -6 -15 -3 -22 3 -8 0 -14 -6 -14 -6 0 -11 -9 -11 -20 0 -11
-7 -23 -15 -26 -8 -4 -15 -12 -15 -18 0 -7 -16 -27 -35 -46 -38 -36 -47 -25
-16 19 23 32 45 126 45 198 1 50 2 52 26 49 14 -1 32 -6 39 -10z m-2372 -48
c-3 -7 -5 -2 -5 12 0 14 2 19 5 13 2 -7 2 -19 0 -25z m67 -22 c-3 -21 -8 -35
-11 -32 -2 2 -1 20 3 40 3 21 8 35 11 32 2 -2 1 -20 -3 -40z m673 -50 c-4 -9
-16 -16 -27 -16 -16 0 -20 7 -20 30 0 20 5 30 15 30 9 0 15 10 16 28 1 22 3
19 11 -15 6 -23 8 -49 5 -57z m-762 -157 l-14 -74 5 63 c5 61 13 96 20 89 2
-1 -3 -37 -11 -78z m2872 59 c-3 -8 -6 -5 -6 6 -1 11 2 17 5 13 3 -3 4 -12 1
-19z m-2830 -180 c-2 -13 -4 -3 -4 22 0 25 2 35 4 23 2 -13 2 -33 0 -45z m-40
-10 c-3 -8 -6 -5 -6 6 -1 11 2 17 5 13 3 -3 4 -12 1 -19z m1970 -24 c-3 -3
-12 -4 -19 -1 -8 3 -5 6 6 6 11 1 17 -2 13 -5z m-1940 -36 c-3 -7 -5 -2 -5 12
0 14 2 19 5 13 2 -7 2 -19 0 -25z m1149 -105 c28 -23 88 -71 135 -105 46 -35
112 -86 147 -113 175 -139 285 -218 414 -300 79 -49 149 -95 156 -102 7 -7 18
-13 23 -13 12 0 93 -52 97 -63 2 -4 7 -5 12 -2 4 3 14 -2 21 -11 10 -13 10
-17 -1 -24 -8 -5 -18 -6 -22 -4 -4 3 -8 0 -8 -5 0 -6 -7 -11 -15 -11 -8 0 -15
-2 -15 -4 0 -2 -3 -13 -6 -23 -4 -14 -4 -15 4 -4 8 11 14 10 36 -5 14 -11 26
-25 26 -32 0 -18 30 -11 44 11 9 14 6 22 -18 42 -20 17 -24 25 -13 25 8 0 22
3 30 6 9 3 15 0 14 -8 -1 -42 4 -78 13 -78 5 0 7 8 3 18 -4 12 -3 14 5 7 6 -5
12 -21 14 -35 2 -14 10 -25 18 -25 33 0 63 -198 32 -210 -8 -3 -11 -12 -8 -20
3 -8 1 -15 -4 -15 -11 0 -13 -33 -3 -44 10 -10 14 -48 7 -66 -4 -8 -6 -26 -5
-40 1 -18 -4 -13 -17 19 -14 32 -20 39 -25 27 -4 -9 -2 -16 3 -16 6 0 1 -9
-10 -20 -11 -11 -20 -27 -20 -35 0 -8 -4 -15 -10 -15 -5 0 -10 -8 -10 -17 0
-15 2 -15 9 -4 6 10 9 0 8 -28 -2 -37 -4 -41 -23 -36 -17 4 -24 -2 -35 -28
-17 -41 -20 -57 -8 -57 5 0 9 -4 9 -9 0 -5 -18 -8 -40 -7 -26 0 -39 -3 -36
-10 3 -7 -3 -10 -15 -7 -10 3 -19 9 -19 13 0 8 -51 19 -102 23 -14 1 -24 5
-22 9 2 4 -5 10 -17 13 -42 14 -111 47 -106 52 3 2 15 0 26 -7 12 -6 21 -8 21
-6 0 6 -55 36 -65 36 -3 0 -3 -5 1 -11 4 -7 1 -10 -7 -7 -8 3 -13 11 -11 18 3
11 0 11 -12 0 -13 -10 -16 -10 -16 3 0 8 -13 21 -30 29 -16 7 -30 16 -30 20 0
3 -3 14 -7 24 -4 11 -3 15 4 11 6 -4 22 -3 35 2 21 9 21 10 -9 10 -25 1 -33 5
-33 20 0 10 -7 35 -15 54 -14 33 -13 37 2 46 11 6 17 23 18 49 1 23 -1 40 -4
40 -4 0 -9 1 -13 2 -10 3 -25 7 -35 9 -5 1 -2 5 5 10 8 5 0 8 -23 9 -40 2 -86
21 -51 22 15 0 16 3 6 15 -8 9 -9 15 -2 15 6 0 17 -8 24 -17 17 -23 39 -28 31
-7 -5 14 -3 15 15 5 25 -13 32 -14 32 -3 0 5 -18 16 -40 26 -22 10 -40 24 -40
32 0 13 -5 15 -42 18 -15 1 -28 16 -28 31 0 6 3 5 8 -1 9 -14 66 -29 57 -14
-3 5 -21 18 -38 27 -17 9 -43 28 -57 42 -14 14 -45 43 -68 63 -23 21 -42 44
-42 52 0 8 -6 19 -13 23 -7 4 -34 52 -60 106 -25 54 -42 95 -37 92 16 -10 12
12 -5 29 -8 8 -15 19 -15 24 0 11 -57 116 -87 160 -42 63 -112 259 -138 390
l-7 33 49 -48 c27 -26 72 -67 99 -90z m-1176 -72 c0 -10 -6 -21 -14 -24 -11
-4 -11 -1 -2 19 13 29 16 30 16 5z m-143 -339 c14 11 15 10 8 -12 -4 -14 -14
-31 -23 -37 -13 -11 -13 -13 -1 -14 8 0 6 -4 -6 -9 -14 -6 -15 -9 -5 -10 9 -1
5 -5 -9 -11 -34 -13 -35 -7 -6 36 14 20 24 40 21 43 -7 7 -42 -37 -57 -70 -6
-16 -16 -28 -21 -28 -6 0 -5 7 2 15 7 9 10 18 7 21 -3 3 -12 -3 -19 -15 -7
-12 -16 -21 -21 -21 -4 0 0 11 9 25 9 14 22 25 30 25 7 0 11 6 8 14 -3 8 -1
17 5 21 7 4 9 -1 5 -12 -3 -10 7 -3 22 16 16 18 30 28 32 22 3 -9 8 -8 19 1z
m3273 -42 c0 -20 -2 -22 -10 -10 -5 8 -10 26 -10 40 0 20 2 22 10 10 5 -8 10
-26 10 -40z m-3390 21 c0 -5 -21 -30 -47 -55 -25 -25 -41 -46 -35 -46 6 0 14
5 17 10 3 6 13 10 21 10 13 0 13 -2 2 -14 -16 -15 -78 -27 -78 -14 0 4 5 8 10
8 6 0 10 9 10 20 0 11 5 20 10 20 6 0 10 7 8 16 -2 10 11 24 32 35 39 21 50
23 50 10z m-160 -83 c0 -19 -18 -43 -25 -36 -4 3 -2 16 5 27 12 24 20 27 20 9z
m3660 -173 c0 -6 11 -22 25 -35 13 -12 31 -44 40 -70 10 -30 23 -50 35 -53 14
-3 17 -1 13 12 -7 20 4 9 40 -41 39 -53 33 -70 -9 -23 -22 25 -37 35 -40 28
-3 -7 -9 -13 -14 -13 -10 0 -80 103 -121 178 -16 28 -16 30 0 25 13 -5 14 -3
4 8 -21 22 -15 34 7 14 11 -10 20 -23 20 -30z m-3480 -89 c0 -3 -4 -8 -10 -11
-5 -3 -10 -1 -10 4 0 6 5 11 10 11 6 0 10 -2 10 -4z m1558 -51 c-3 -3 -9 2
-12 12 -6 14 -5 15 5 6 7 -7 10 -15 7 -18z m-1543 5 c3 -6 -1 -7 -9 -4 -18 7
-21 14 -7 14 6 0 13 -4 16 -10z m1575 -50 c0 -13 -1 -13 -10 0 -5 8 -10 22
-10 30 0 13 1 13 10 0 5 -8 10 -22 10 -30z m-1533 -42 c-3 -8 -6 -5 -6 6 -1
11 2 17 5 13 3 -3 4 -12 1 -19z m1552 3 c6 -10 7 -21 4 -25 -4 -4 3 -9 15 -13
30 -7 92 -139 77 -163 -8 -13 -25 -13 -25 1 0 5 5 7 10 4 14 -9 12 1 -8 38
-10 19 -23 32 -30 29 -7 -2 -12 0 -11 5 3 20 -2 34 -11 28 -5 -3 -14 13 -21
35 -7 22 -15 40 -18 40 -4 0 -7 9 -8 20 -2 25 13 26 26 1z m36 -21 c3 -5 1
-10 -4 -10 -6 0 -11 5 -11 10 0 6 2 10 4 10 3 0 8 -4 11 -10z m-1548 -62 c-3
-8 -6 -5 -6 6 -1 11 2 17 5 13 3 -3 4 -12 1 -19z m3831 -35 c2 -7 -4 -13 -13
-13 -9 0 -14 4 -10 9 3 5 -3 12 -12 15 -11 3 -9 4 6 3 14 -1 26 -8 29 -14z
m-2052 -40 c-3 -7 -1 -13 5 -13 6 0 7 -5 4 -10 -4 -6 -12 -4 -21 5 -9 8 -12
19 -9 25 3 5 1 10 -5 10 -6 0 -8 5 -5 10 9 15 37 -9 31 -27z m2004 7 c0 -5 -4
-10 -10 -10 -5 0 -10 5 -10 10 0 6 5 10 10 10 6 0 10 -4 10 -10z m210 -16 c0
-8 3 -13 8 -13 21 4 32 -3 31 -18 0 -11 -3 -13 -6 -5 -9 22 -20 13 -15 -13 4
-21 1 -25 -19 -25 -32 0 -46 11 -50 37 -5 31 15 33 21 2 3 -13 10 -24 17 -24
21 0 26 14 9 30 -17 18 -23 60 -6 50 6 -3 10 -13 10 -21z m-60 6 c0 -5 -7 -7
-15 -4 -8 4 -15 8 -15 10 0 2 7 4 15 4 8 0 15 -4 15 -10z m-97 -17 c-7 -2 -19
-2 -25 0 -7 3 -2 5 12 5 14 0 19 -2 13 -5z m-2429 -26 c11 -4 16 -13 12 -22
-3 -8 -1 -15 4 -15 6 0 10 -5 10 -11 0 -8 -4 -8 -14 1 -8 6 -13 17 -10 24 3 8
-5 16 -21 20 -15 4 -23 11 -19 17 4 7 9 7 13 2 3 -5 14 -13 25 -16z m51 -5
c-3 -3 -11 0 -18 7 -9 10 -8 11 6 5 10 -3 15 -9 12 -12z m1032 -34 c-3 -7 -5
-2 -5 12 0 14 2 19 5 13 2 -7 2 -19 0 -25z m1580 26 c-3 -3 -12 -4 -19 -1 -8
3 -5 6 6 6 11 1 17 -2 13 -5z m-297 -14 c0 -5 -4 -10 -10 -10 -5 0 -10 5 -10
10 0 6 5 10 10 10 6 0 10 -4 10 -10z m140 -14 c0 -9 -8 -12 -27 -8 l-28 6 25
7 c14 4 26 7 28 8 1 1 2 -5 2 -13z m140 -8 c0 -6 8 -17 18 -24 10 -8 12 -13 5
-14 -15 0 -53 36 -53 50 0 5 7 7 15 4 8 -4 15 -11 15 -16z m-2580 -9 c0 -5 6
-9 13 -9 7 0 28 -15 46 -34 28 -29 30 -34 12 -29 -11 3 -21 12 -21 19 0 8 -6
14 -12 14 -13 1 -68 45 -68 54 0 3 7 3 15 0 8 -4 15 -10 15 -15z m2267 -1 c-3
-8 -6 -5 -6 6 -1 11 2 17 5 13 3 -3 4 -12 1 -19z m301 -28 c23 -18 39 -37 36
-41 -3 -5 2 -9 10 -9 9 0 16 -4 16 -10 0 -17 -11 -11 -63 36 -36 32 -57 44
-73 41 -15 -2 -21 0 -17 9 8 21 47 10 91 -26z m-233 2 c-3 -3 -11 0 -18 7 -9
10 -8 11 6 5 10 -3 15 -9 12 -12z m85 8 c0 -5 -7 -10 -15 -10 -8 0 -15 5 -15
10 0 6 7 10 15 10 8 0 15 -4 15 -10z m-1405 -19 c3 -5 2 -12 -3 -15 -5 -3 -9
1 -9 9 0 17 3 19 12 6z m1271 -39 c-11 -10 -15 4 -8 28 l7 25 3 -23 c2 -13 1
-26 -2 -30z m54 27 c0 -11 -3 -11 -24 -3 -23 9 -20 23 4 17 11 -3 20 -9 20
-14z m46 2 c27 5 34 -5 9 -11 -29 -7 -30 -8 -4 -9 27 -1 47 -35 28 -47 -5 -3
-9 5 -10 18 -1 23 -1 23 -9 -2 -7 -23 -8 -23 -9 -4 -1 12 -7 24 -15 27 -7 3
-16 15 -19 27 -4 17 -3 19 8 10 7 -6 17 -10 21 -9z m144 6 c0 -9 -10 -12 -31
-9 -22 3 -27 7 -18 13 21 13 49 11 49 -4z m-363 -29 c-3 -7 -5 -2 -5 12 0 14
2 19 5 13 2 -7 2 -19 0 -25z m283 6 c0 -8 -4 -12 -10 -9 -5 3 -10 10 -10 16 0
5 5 9 10 9 6 0 10 -7 10 -16z m197 4 c4 -7 25 -21 46 -31 34 -16 37 -20 26
-35 -21 -27 -23 -28 -16 -9 5 13 -4 24 -38 45 -43 25 -57 42 -35 42 5 0 13 -6
17 -12z m-1620 -14 c-3 -3 -12 -4 -19 -1 -8 3 -5 6 6 6 11 1 17 -2 13 -5z
m1166 -14 c-3 -12 -8 -19 -11 -16 -5 6 5 36 12 36 2 0 2 -9 -1 -20z m-3853 -4
c0 -2 -7 -6 -15 -10 -8 -3 -15 -1 -15 4 0 6 7 10 15 10 8 0 15 -2 15 -4z
m4037 -16 c-3 -10 0 -21 7 -24 6 -2 3 -5 -6 -5 -13 -1 -18 7 -18 24 0 14 5 25
11 25 6 0 9 -9 6 -20z m-47 0 c0 -5 -4 -10 -10 -10 -5 0 -10 5 -10 10 0 6 5
10 10 10 6 0 10 -4 10 -10z m180 -11 c0 -5 -5 -9 -10 -9 -7 0 -7 -6 0 -20 15
-29 -14 -27 -34 2 -24 34 -20 45 14 40 17 -2 30 -8 30 -13z m-2450 -4 c7 -9 8
-15 2 -15 -5 0 -12 7 -16 15 -3 8 -4 15 -2 15 2 0 9 -7 16 -15z m-1702 -24
c-1 -21 -8 -32 -27 -40 -24 -11 -25 -10 -7 4 11 8 16 15 11 15 -5 0 -4 5 3 12
9 9 7 14 -6 24 -16 12 -15 13 5 14 18 0 22 -6 21 -29z m2606 14 c3 -8 1 -15
-4 -15 -6 0 -10 7 -10 15 0 8 2 15 4 15 2 0 6 -7 10 -15z m35 -47 c1 -10 -6
-18 -15 -18 -12 0 -15 6 -10 23 3 12 6 31 7 42 1 17 2 16 9 -5 4 -14 8 -33 9
-42z m1451 39 c0 -7 -8 -13 -18 -14 -10 -1 -19 4 -19 11 0 6 9 13 19 13 10 1
18 -4 18 -10z m501 -2 c23 7 23 6 7 -10 -19 -21 -48 -13 -48 12 0 14 2 15 9 4
6 -9 17 -11 32 -6z m-416 -5 c3 -5 -1 -10 -9 -10 -9 0 -16 5 -16 10 0 6 4 10
9 10 6 0 13 -4 16 -10z m-2430 -10 c3 -6 -1 -7 -9 -4 -18 7 -21 14 -7 14 6 0
13 -4 16 -10z m-1788 -6 c-3 -3 -12 -4 -19 -1 -8 3 -5 6 6 6 11 1 17 -2 13 -5z
m4203 -46 c0 -12 -9 -10 -41 9 -41 24 -36 36 6 16 19 -9 35 -20 35 -25z m60
32 c0 -5 -9 -10 -20 -10 -11 0 -20 5 -20 10 0 6 9 10 20 10 11 0 20 -4 20 -10z
m-4280 -24 c0 -3 -4 -8 -10 -11 -5 -3 -10 -1 -10 4 0 6 5 11 10 11 6 0 10 -2
10 -4z m77 -2 c-3 -3 -12 -4 -19 -1 -8 3 -5 6 6 6 11 1 17 -2 13 -5z m3993
-14 c0 -5 -10 -10 -22 -9 -22 0 -22 1 -3 9 11 5 21 9 23 9 1 1 2 -3 2 -9z
m-4030 -10 c0 -5 -9 -10 -21 -10 -11 0 -17 5 -14 10 3 6 13 10 21 10 8 0 14
-4 14 -10z m35 0 c3 -6 -1 -7 -9 -4 -18 7 -21 14 -7 14 6 0 13 -4 16 -10z
m4135 0 c8 -5 11 -10 5 -10 -5 0 -17 5 -25 10 -8 5 -10 10 -5 10 6 0 17 -5 25
-10z m255 -20 c7 -12 -2 -12 -30 0 -19 8 -19 9 2 9 12 1 25 -3 28 -9z m-535
-26 c0 -8 -4 -12 -10 -9 -5 3 -10 10 -10 16 0 5 5 9 10 9 6 0 10 -7 10 -16z
m-1343 -26 c-3 -7 -5 -2 -5 12 0 14 2 19 5 13 2 -7 2 -19 0 -25z m-2672 12 c3
-6 -4 -10 -17 -10 -18 0 -20 2 -8 10 19 12 18 12 25 0z m2705 0 c0 -5 -5 -10
-11 -10 -5 0 -7 5 -4 10 3 6 8 10 11 10 2 0 4 -4 4 -10z m1287 -32 c-3 -7 -5
-2 -5 12 0 14 2 19 5 13 2 -7 2 -19 0 -25z m-1200 0 c-3 -8 -6 -5 -6 6 -1 11
2 17 5 13 3 -3 4 -12 1 -19z m83 12 c0 -5 -4 -10 -10 -10 -5 0 -10 5 -10 10 0
6 5 10 10 10 6 0 10 -4 10 -10z m-2960 -35 c-14 -17 -30 -20 -30 -6 0 5 8 12
18 14 9 3 19 5 21 6 2 0 -2 -6 -9 -14z m57 9 c-3 -3 -12 -4 -19 -1 -8 3 -5 6
6 6 11 1 17 -2 13 -5z m4090 -56 c-3 -8 -6 -5 -6 6 -1 11 2 17 5 13 3 -3 4
-12 1 -19z m-4117 8 c0 -2 -7 -6 -15 -10 -8 -3 -15 -1 -15 4 0 6 7 10 15 10 8
0 15 -2 15 -4z m50 0 c0 -2 -7 -7 -16 -10 -8 -3 -12 -2 -9 4 6 10 25 14 25 6z
m-65 -26 c18 -7 18 -8 -7 -15 -29 -7 -52 1 -43 16 7 11 23 11 50 -1z m2323
-30 c15 -13 18 -20 10 -23 -7 -3 -3 -6 8 -6 23 -1 123 -39 139 -53 13 -11 27
-10 20 2 -3 6 -1 10 4 10 6 0 11 -6 11 -14 0 -8 14 -17 30 -21 17 -4 30 -11
30 -17 0 -5 10 -9 23 -8 44 4 51 -1 17 -13 -19 -7 -34 -15 -32 -20 1 -4 -7
-23 -18 -44 -21 -39 -60 -53 -81 -27 -6 8 -22 14 -35 14 -33 0 -30 18 4 23 23
3 21 4 -9 6 -26 1 -43 9 -62 31 -15 17 -22 30 -15 30 7 0 -8 10 -34 23 -27 12
-48 28 -48 35 0 7 -4 11 -9 8 -4 -3 -16 3 -25 13 -14 16 -15 20 -2 30 8 7 25
9 40 5 21 -5 25 -3 20 9 -3 9 -11 14 -18 11 -7 -3 -19 3 -27 12 -13 15 -11 16
11 9 14 -4 35 -16 48 -25z m-2408 -30 c0 -11 6 -20 13 -20 12 -1 -21 -30 -34
-30 -8 0 -19 52 -12 62 9 16 33 7 33 -12z m2231 3 c13 -16 12 -17 -3 -4 -17
13 -22 21 -14 21 2 0 10 -8 17 -17z m-41 -86 c0 -7 4 -6 10 3 7 10 10 11 11 3
1 -7 2 -18 3 -23 0 -6 6 -14 11 -18 6 -4 18 -19 28 -34 14 -23 14 -26 2 -22
-20 8 -19 -13 0 -24 16 -9 11 -42 -7 -42 -5 0 -6 5 -3 10 3 6 -3 24 -15 40
-12 17 -17 30 -11 30 6 0 11 5 11 10 0 6 -7 10 -15 10 -8 0 -22 14 -30 30 -9
18 -21 28 -27 24 -6 -4 -8 -3 -4 4 3 6 -3 28 -15 49 l-22 38 37 -38 c20 -21
36 -43 36 -50z m2710 49 c0 -19 -27 -28 -33 -11 -7 15 1 25 20 25 7 0 13 -6
13 -14z m-54 -23 c-10 -10 -19 5 -10 18 6 11 8 11 12 0 2 -7 1 -15 -2 -18z
m-496 -26 c0 -4 -9 -3 -20 3 -11 6 -20 15 -20 20 0 6 9 5 20 -2 11 -7 20 -16
20 -21z m-4275 13 c-11 -5 -27 -9 -35 -9 -13 -1 -13 0 0 9 8 5 24 9 35 9 l20
0 -20 -9z m4243 -25 c15 -4 29 -10 32 -15 3 -5 28 -18 55 -29 39 -16 44 -20
24 -20 -27 -1 -104 32 -126 54 -7 7 -18 15 -25 17 -7 3 -8 9 -3 19 8 12 10 11
13 -3 2 -9 15 -19 30 -23z m648 12 c4 -4 2 -7 -4 -7 -6 0 -9 -7 -5 -17 4 -11
3 -14 -5 -9 -7 4 -12 2 -12 -5 0 -21 -13 0 -16 26 -2 19 2 24 16 22 11 -2 23
-6 26 -10z m226 -27 c5 0 7 -7 4 -16 -3 -8 -2 -13 3 -9 5 3 12 -1 14 -7 4 -8
6 -7 6 4 1 9 -6 24 -15 32 -8 9 -11 16 -6 16 22 0 39 -44 29 -77 -10 -34 -27
-45 -27 -18 0 8 6 15 13 16 6 0 1 5 -12 10 -14 6 -21 15 -17 24 3 8 1 17 -4
20 -6 4 -9 16 -9 28 2 22 2 22 6 0 2 -13 9 -23 15 -23z m-2447 20 c3 -6 -1 -7
-9 -4 -18 7 -21 14 -7 14 6 0 13 -4 16 -10z m1472 -12 c-3 -8 -6 -5 -6 6 -1
11 2 17 5 13 3 -3 4 -12 1 -19z m-1811 2 c16 6 23 6 19 1 -3 -6 3 -15 12 -21
17 -11 17 -11 1 -6 -10 3 -25 9 -35 13 -11 4 -14 3 -9 -5 10 -16 -5 -15 -27 2
-13 10 -15 15 -5 18 7 3 14 1 16 -3 2 -4 15 -4 28 1z m2023 -11 c19 -21 61
-20 61 2 0 5 5 9 11 9 5 0 7 -5 3 -11 -5 -8 3 -10 24 -7 17 2 29 2 27 -2 -2
-3 0 -12 6 -20 7 -12 9 -10 9 8 0 22 20 32 20 10 0 -10 2 -10 9 0 7 11 9 11
14 -2 4 -9 -1 -16 -11 -19 -12 -3 -11 -5 6 -6 12 0 22 4 22 10 0 8 26 10 79 8
44 -2 77 0 74 5 -3 4 5 5 18 0 26 -9 55 -12 112 -13 26 -1 37 -5 37 -16 0 -8
-6 -16 -12 -16 -7 -1 -17 -2 -23 -4 -5 -1 -14 -3 -18 -3 -13 -3 20 -32 35 -32
8 0 19 5 26 12 9 9 12 9 12 0 0 -7 -4 -12 -10 -12 -22 0 -8 -20 27 -36 20 -10
31 -20 24 -22 -6 -2 -23 3 -36 12 -13 9 -30 16 -38 16 -7 0 -23 9 -35 20 -22
20 -32 14 -12 -6 11 -11 -50 -11 -122 0 -21 4 -39 2 -43 -4 -4 -6 -11 -8 -16
-4 -5 3 -7 9 -4 13 2 5 -14 9 -38 10 -45 1 -124 18 -94 20 23 1 22 17 -3 24
-19 5 -24 -3 -20 -32 1 -10 -5 -12 -22 -7 -49 16 -68 18 -68 9 0 -5 -16 -8
-36 -7 -30 3 -35 1 -30 -14 5 -15 5 -15 -6 -2 -14 17 -64 21 -85 7 -8 -5 -13
-3 -13 5 -1 7 -9 3 -20 -11 -11 -13 -20 -19 -20 -14 0 15 36 44 43 36 4 -3 7
-2 7 4 0 6 32 9 79 9 44 -1 77 2 75 6 -2 4 10 3 27 -2 21 -6 38 -6 48 1 14 9
14 10 -1 5 -10 -3 -20 -1 -23 4 -4 6 -13 10 -21 10 -9 0 -22 6 -29 13 -26 23
-40 33 -60 45 -17 10 -18 11 -3 12 10 0 26 -9 37 -21z m575 15 c21 -8 20 -24
-1 -25 -15 0 -15 -2 2 -9 13 -6 15 -9 5 -9 -25 -1 -41 14 -34 32 7 19 7 19 28
11z m-2544 -66 c0 -5 5 -6 10 -3 6 3 10 1 10 -4 0 -18 -17 -13 -47 14 l-28 25
28 -11 c15 -7 27 -16 27 -21z m1864 23 c3 -5 0 -11 -7 -14 -8 -3 -14 1 -14 9
0 16 13 19 21 5z m-4269 -10 c-3 -6 3 -15 14 -20 28 -16 35 -41 10 -41 -11 0
-17 5 -14 10 3 6 -1 17 -9 26 -18 18 -21 34 -5 34 5 0 8 -4 4 -9z m122 3 c-3
-3 -12 -4 -19 -1 -8 3 -5 6 6 6 11 1 17 -2 13 -5z m4027 -9 c-4 -8 -8 -15 -10
-15 -2 0 -4 7 -4 15 0 8 4 15 10 15 5 0 7 -7 4 -15z m161 -5 c3 -5 1 -10 -4
-10 -6 0 -11 5 -11 10 0 6 2 10 4 10 3 0 8 -4 11 -10z m629 4 c12 -5 14 -10 6
-19 -14 -17 -50 -8 -43 11 6 15 13 17 37 8z m-4377 -36 c-3 -8 -6 -5 -6 6 -1
11 2 17 5 13 3 -3 4 -12 1 -19z m2100 0 c-3 -8 -6 -5 -6 6 -1 11 2 17 5 13 3
-3 4 -12 1 -19z m140 0 c-3 -8 -6 -5 -6 6 -1 11 2 17 5 13 3 -3 4 -12 1 -19z
m1353 2 c0 -5 -5 -10 -11 -10 -5 0 -7 5 -4 10 3 6 8 10 11 10 2 0 4 -4 4 -10z
m-28 -43 c1 -20 -1 -39 -5 -43 -4 -4 -7 14 -7 41 0 56 8 57 12 2z m-1625 13
c3 -10 2 -11 -4 -4 -4 7 -19 14 -33 17 -22 4 -21 5 4 4 17 -1 31 -9 33 -17z
m1681 -8 c2 -7 -3 -12 -12 -12 -9 0 -16 7 -16 16 0 17 22 14 28 -4z m1032 3
c-8 -9 -17 -12 -24 -6 -6 4 -18 11 -26 14 -8 3 2 6 24 6 33 1 37 -1 26 -14z
m-630 -5 c0 -5 -7 -7 -15 -4 -8 4 -15 8 -15 10 0 2 7 4 15 4 8 0 15 -4 15 -10z
m-4493 -7 c-4 -3 -1 -13 6 -22 11 -14 10 -14 -5 -2 -16 12 -16 31 -1 31 4 0 3
-3 0 -7z m2478 -3 c-3 -5 -17 -10 -31 -10 -14 0 -22 4 -19 10 3 6 17 10 31 10
14 0 22 -4 19 -10z m-1988 -57 l0 -58 -9 43 c-8 39 -6 72 5 72 3 0 4 -26 4
-57z m4400 51 c-3 -3 -12 -4 -19 -1 -8 3 -5 6 6 6 11 1 17 -2 13 -5z m179 -36
c-6 -4 -15 -8 -21 -8 -5 0 -3 5 5 10 13 8 13 10 -2 10 -9 0 -20 5 -24 12 -4 7
-3 8 4 4 7 -4 12 -2 12 5 0 7 8 5 19 -7 12 -13 15 -21 7 -26z m94 26 c0 -2
-11 -3 -24 -2 -14 1 -23 5 -20 9 4 7 44 0 44 -7z m-1076 -9 c3 -9 0 -15 -9
-15 -8 0 -15 7 -15 15 0 8 4 15 9 15 5 0 11 -7 15 -15z m716 5 c0 -5 -6 -10
-14 -10 -8 0 -18 5 -21 10 -3 6 3 10 14 10 12 0 21 -4 21 -10z m90 -20 c0 -5
-5 -10 -11 -10 -5 0 -7 5 -4 10 3 6 8 10 11 10 2 0 4 -4 4 -10z m-762 -45 c3
-35 -10 -66 -23 -53 -12 12 -8 72 5 76 10 4 9 6 -1 14 -11 8 -11 9 1 5 9 -2
16 -18 18 -42z m946 27 c29 6 45 -18 18 -26 -20 -5 -102 -5 -102 0 0 2 8 12
18 22 11 13 21 16 29 9 7 -5 24 -7 37 -5z m140 -34 c-11 -17 -24 -7 -24 18 0
16 -4 23 -12 18 -7 -5 -8 -3 -3 6 6 10 12 7 26 -11 9 -13 15 -27 13 -31z
m-1127 27 c0 -8 -4 -15 -9 -15 -4 0 -8 7 -8 15 0 8 4 15 8 15 5 0 9 -7 9 -15z
m-1937 -10 c0 -8 -2 -15 -4 -15 -2 0 -6 7 -10 15 -3 8 -1 15 4 15 6 0 10 -7
10 -15z m-1643 -17 c-3 -8 -6 -5 -6 6 -1 11 2 17 5 13 3 -3 4 -12 1 -19z
m4753 12 c0 -5 -2 -10 -4 -10 -3 0 -8 5 -11 10 -3 6 -1 10 4 10 6 0 11 -4 11
-10z m-2771 -65 c0 -5 -6 -1 -14 9 -8 11 -15 27 -15 35 1 17 29 -26 29 -44z
m-2112 3 c-3 -8 -6 -5 -6 6 -1 11 2 17 5 13 3 -3 4 -12 1 -19z m360 0 c-3 -8
-6 -5 -6 6 -1 11 2 17 5 13 3 -3 4 -12 1 -19z m1800 0 c-3 -8 -6 -5 -6 6 -1
11 2 17 5 13 3 -3 4 -12 1 -19z m51 -73 c-1 -36 -7 -65 -11 -65 -5 0 -7 10 -3
23 3 12 6 41 6 65 0 23 3 42 6 42 3 0 4 -29 2 -65z m-100 14 c-3 -20 -5 -19
-9 9 -3 20 -2 29 4 23 5 -5 7 -19 5 -32z m158 29 c-12 -40 -17 -50 -22 -46 -5
6 13 58 20 58 3 0 4 -6 2 -12z m-2119 -20 c-3 -8 -6 -5 -6 6 -1 11 2 17 5 13
3 -3 4 -12 1 -19z m1942 -20 c-1 -31 -1 -31 -8 -8 -5 14 -6 28 -4 33 9 15 13
6 12 -25z m-1962 0 c-3 -8 -6 -5 -6 6 -1 11 2 17 5 13 3 -3 4 -12 1 -19z
m2040 -25 c-3 -10 -5 -2 -5 17 0 19 2 27 5 18 2 -10 2 -26 0 -35z m1502 13 c0
-12 -3 -16 -6 -7 -4 11 -7 11 -14 0 -4 -7 -11 -10 -15 -6 -4 3 -2 13 4 20 7 8
9 17 5 21 -4 4 0 4 10 0 9 -3 17 -16 16 -28z m-1169 14 c0 -5 -4 -10 -10 -10
-5 0 -10 5 -10 10 0 6 5 10 10 10 6 0 10 -4 10 -10z m1280 2 c0 -5 -17 -16
-37 -26 -27 -13 -33 -14 -25 -3 7 7 9 17 5 21 -4 4 0 4 9 1 9 -4 19 -2 23 4 7
13 25 15 25 3z m-80 -6 c0 -3 -4 -8 -10 -11 -5 -3 -10 -1 -10 4 0 6 5 11 10
11 6 0 10 -2 10 -4z m-1125 -24 c-3 -3 -11 0 -18 7 -9 10 -8 11 6 5 10 -3 15
-9 12 -12z m-951 -8 c3 -8 2 -12 -4 -9 -6 3 -10 10 -10 16 0 14 7 11 14 -7z
m483 -6 c-3 -8 -6 -5 -6 6 -1 11 2 17 5 13 3 -3 4 -12 1 -19z m1588 2 c-3 -5
-12 -10 -18 -10 -7 0 -6 4 3 10 19 12 23 12 15 0z m-1608 -32 c-3 -7 -5 -2 -5
12 0 14 2 19 5 13 2 -7 2 -19 0 -25z"/>
<path d="M2832 4680 c-18 -3 -33 -9 -34 -15 -2 -25 -12 -35 -34 -35 -13 0 -24
-4 -24 -10 0 -5 6 -10 13 -10 8 0 7 -4 -3 -11 -12 -9 -11 -9 5 -4 36 13 71 18
57 7 -21 -15 13 -23 45 -11 18 7 30 6 37 -1 5 -5 29 -10 53 -10 24 0 43 -4 43
-9 0 -4 -11 -6 -24 -4 -15 3 -25 -1 -29 -11 -5 -11 -1 -16 13 -16 11 0 20 -6
20 -14 0 -8 3 -23 6 -33 5 -15 4 -15 -5 -3 -6 8 -11 11 -11 5 0 -6 -24 -9 -57
-7 -32 2 -76 -1 -98 -6 -36 -9 -32 -10 45 -12 53 -1 76 -5 60 -9 -24 -7 -24
-7 -5 -19 13 -8 14 -12 5 -11 -8 2 -26 -2 -40 -8 -14 -6 -43 -15 -65 -20 -22
-6 -49 -14 -59 -18 -15 -7 -17 -5 -11 6 5 8 1 7 -12 -3 -11 -10 -25 -18 -32
-18 -6 0 -21 -9 -33 -20 -11 -10 -34 -22 -51 -26 l-30 -6 31 -14 c17 -7 45
-27 61 -43 17 -17 38 -31 48 -32 12 -1 10 -3 -7 -8 -24 -7 -23 -8 10 -14 19
-3 72 -9 118 -13 76 -6 88 -4 150 21 73 31 106 54 85 62 -22 8 -14 25 8 18 16
-5 20 -3 18 12 -2 10 2 28 9 39 6 12 9 24 6 26 -3 3 5 24 16 46 17 32 19 45
11 61 -6 11 -8 27 -4 36 5 14 2 16 -15 10 -26 -8 -28 6 -6 40 10 15 12 25 5
25 -5 0 -8 6 -5 14 3 8 1 17 -5 21 -6 3 -11 -1 -11 -11 0 -13 -5 -10 -21 10
-11 14 -25 24 -30 20 -6 -3 -25 6 -44 21 -36 27 -79 31 -173 15z m225 -72 c-3
-7 -5 -2 -5 12 0 14 2 19 5 13 2 -7 2 -19 0 -25z m4 -46 c-7 -2 -18 1 -23 6
-8 8 -4 9 13 5 13 -4 18 -8 10 -11z m-271 -232 c0 -5 -7 -10 -15 -10 -8 0 -15
5 -15 10 0 6 7 10 15 10 8 0 15 -4 15 -10z m-64 -45 c-1 -9 -5 -15 -9 -15 -4
0 -11 0 -17 0 -5 0 -10 8 -10 18 0 14 2 15 10 2 8 -13 10 -12 10 3 0 10 4 16
9 13 5 -4 8 -13 7 -21z m43 -12 c10 -7 20 -8 26 -2 14 14 25 11 26 -8 0 -10 3
-13 5 -7 5 13 44 7 44 -7 0 -5 12 -4 26 2 15 5 29 7 32 5 11 -11 -53 -26 -84
-20 -19 3 -53 7 -75 7 -36 1 -40 3 -35 21 3 12 6 28 7 36 0 13 1 13 6 0 4 -8
13 -20 22 -27z m121 21 c0 -2 -28 -3 -62 -3 -51 1 -56 3 -28 8 34 6 90 3 90
-5z"/>
<path d="M2715 4621 c4 -8 2 -17 -6 -22 -9 -6 -10 -9 -2 -9 19 0 27 21 13 33
-10 9 -11 9 -5 -2z"/>
<path d="M2675 4446 c-27 -14 -45 -25 -38 -25 6 -1 35 10 65 24 29 14 46 25
38 25 -8 0 -37 -11 -65 -24z"/>
<path d="M2649 4401 c-13 -11 -21 -22 -18 -25 3 -3 16 5 29 19 28 30 22 33
-11 6z"/>
<path d="M2857 3602 c-18 -20 -23 -52 -8 -52 5 0 13 9 16 20 3 11 13 27 21 35
13 13 13 15 1 15 -8 0 -21 -8 -30 -18z"/>
<path d="M3124 3345 c22 -17 40 -20 32 -6 -3 5 -16 11 -28 14 -22 6 -22 5 -4
-8z"/>
<path d="M2220 3485 c0 -8 5 -15 10 -15 6 0 10 7 10 15 0 8 -4 15 -10 15 -5 0
-10 -7 -10 -15z"/>
<path d="M3190 2011 c0 -6 4 -13 10 -16 6 -3 7 1 4 9 -7 18 -14 21 -14 7z"/>
<path d="M3465 1977 l-30 -30 34 19 c19 11 36 25 39 32 6 20 -11 12 -43 -21z"/>
<path d="M3275 1970 c-3 -5 -1 -10 4 -10 6 0 11 5 11 10 0 6 -2 10 -4 10 -3 0
-8 -4 -11 -10z"/>
<path d="M3788 1830 c2 -17 8 -30 13 -30 14 0 11 36 -4 49 -11 8 -13 5 -9 -19z"/>
<path d="M3470 1580 c0 -5 5 -10 11 -10 5 0 7 5 4 10 -3 6 -8 10 -11 10 -2 0
-4 -4 -4 -10z"/>
<path d="M3225 1370 c-3 -5 -1 -10 4 -10 6 0 11 5 11 10 0 6 -2 10 -4 10 -3 0
-8 -4 -11 -10z"/>
<path d="M5390 1220 c0 -13 11 -13 30 0 12 8 11 10 -7 10 -13 0 -23 -4 -23
-10z"/>
<path d="M5583 1223 c74 -6 55 -22 -23 -20 -47 1 -70 -2 -70 -9 0 -8 17 -10
48 -8 37 3 42 2 22 -6 -18 -6 1 -8 67 -7 76 2 93 5 96 18 7 25 -9 47 -24 32
-7 -7 -21 -8 -42 -2 -18 5 -52 8 -77 7 l-45 -2 48 -3z"/>
<path d="M5768 1213 c7 -3 16 -2 19 1 4 3 -2 6 -13 5 -11 0 -14 -3 -6 -6z"/>
<path d="M5750 1190 c0 -5 5 -10 11 -10 5 0 7 5 4 10 -3 6 -8 10 -11 10 -2 0
-4 -4 -4 -10z"/>
<path d="M5735 1159 c-11 -16 -1 -19 13 -3 7 8 8 14 3 14 -5 0 -13 -5 -16 -11z"/>
<path d="M5147 1047 c-3 -8 -1 -20 4 -28 6 -10 9 -7 9 14 0 29 -5 35 -13 14z"/>
<path d="M6088 1053 c6 -2 18 -2 25 0 6 3 1 5 -13 5 -14 0 -19 -2 -12 -5z"/>
<path d="M622 5553 c346 -2 910 -2 1255 0 346 1 63 2 -627 2 -690 0 -973 -1
-628 -2z"/>
<path d="M2528 5553 c6 -2 18 -2 25 0 6 3 1 5 -13 5 -14 0 -19 -2 -12 -5z"/>
<path d="M4647 5553 c320 -2 846 -2 1170 0 323 1 62 2 -582 2 -643 0 -908 -1
-588 -2z"/>
<path d="M600 5530 c333 -3 839 -3 1125 0 329 3 108 5 -605 5 -822 0 -962 -1
-520 -5z"/>
<path d="M2393 5533 c15 -2 37 -2 50 0 12 2 0 4 -28 4 -27 0 -38 -2 -22 -4z"/>
<path d="M4080 5533 c1 -13 59 -73 70 -73 13 0 13 16 -1 41 -7 14 -16 18 -30
14 -11 -4 -19 -2 -19 4 0 18 42 13 56 -6 16 -21 19 -87 4 -78 -6 3 -7 -1 -4
-9 3 -9 10 -13 16 -10 5 3 17 -4 27 -15 21 -24 40 -29 21 -6 -7 9 -10 18 -7
21 9 9 27 -6 27 -22 0 -8 5 -12 10 -9 6 4 3 16 -10 32 -11 14 -20 32 -20 39 0
8 -5 14 -11 14 -7 0 -9 -10 -5 -25 4 -14 2 -25 -4 -25 -11 0 -11 3 -14 67 l-1
43 388 0 387 0 0 -35 c0 -34 1 -35 39 -35 22 0 41 -5 43 -10 2 -6 55 -13 121
-17 105 -5 117 -4 117 10 0 14 13 17 85 18 157 3 150 1 153 31 l3 27 -83 4
c-46 1 26 4 160 5 l242 2 0 -35 0 -35 80 0 c64 0 80 -3 80 -15 0 -11 11 -15
40 -15 22 0 40 5 40 10 0 6 18 10 40 10 39 0 40 -1 40 -35 0 -34 1 -35 40 -35
22 0 40 -4 40 -10 0 -6 33 -10 80 -10 l80 0 0 90 0 90 -1160 0 c-638 0 -1160
-3 -1160 -7z m2223 -10 c-13 -2 -33 -2 -45 0 -13 2 -3 4 22 4 25 0 35 -2 23
-4z"/>
<path d="M0 5510 c0 -6 47 -10 120 -10 73 0 120 4 120 10 0 6 -47 10 -120 10
-73 0 -120 -4 -120 -10z"/>
<path d="M972 5480 c3 -36 6 -40 31 -40 25 0 27 3 27 40 0 38 -2 40 -30 40
-29 0 -30 -2 -28 -40z"/>
<path d="M1040 5510 c0 -5 18 -10 40 -10 22 0 40 5 40 10 0 6 -18 10 -40 10
-22 0 -40 -4 -40 -10z"/>
<path d="M1600 5498 c0 -12 1 -19 3 -17 1 2 9 12 16 22 12 14 11 17 -3 17 -10
0 -16 -8 -16 -22z"/>
<path d="M2430 5510 c0 -5 7 -10 16 -10 8 0 12 5 9 10 -3 6 -10 10 -16 10 -5
0 -9 -4 -9 -10z"/>
<path d="M4620 5511 c0 -6 5 -13 10 -16 6 -3 10 1 10 9 0 9 -4 16 -10 16 -5 0
-10 -4 -10 -9z"/>
<path d="M5680 5492 c0 -26 3 -28 37 -27 32 1 37 4 40 28 3 26 1 27 -37 27
-37 0 -40 -2 -40 -28z"/>
<path d="M2400 5499 c0 -5 5 -7 10 -4 6 3 10 8 10 11 0 2 -4 4 -10 4 -5 0 -10
-5 -10 -11z"/>
<path d="M2415 5470 c4 -6 11 -8 16 -5 14 9 11 15 -7 15 -8 0 -12 -5 -9 -10z"/>
<path d="M1040 5430 c0 -6 33 -10 80 -10 47 0 80 4 80 10 0 6 -33 10 -80 10
-47 0 -80 -4 -80 -10z"/>
<path d="M1280 5430 c0 -6 33 -10 80 -10 47 0 80 4 80 10 0 6 -33 10 -80 10
-47 0 -80 -4 -80 -10z"/>
<path d="M6018 5383 c12 -2 32 -2 45 0 12 2 2 4 -23 4 -25 0 -35 -2 -22 -4z"/>
<path d="M4231 5355 c1 -31 15 -60 22 -48 4 6 0 24 -8 39 -12 23 -15 25 -14 9z"/>
<path d="M2326 5348 c3 -5 10 -6 15 -3 13 9 11 12 -6 12 -8 0 -12 -4 -9 -9z"/>
<path d="M4290 5356 c0 -2 7 -9 15 -16 12 -10 15 -10 15 4 0 9 -7 16 -15 16
-8 0 -15 -2 -15 -4z"/>
<path d="M5200 5350 c0 -6 60 -10 160 -10 100 0 160 4 160 10 0 6 -60 10 -160
10 -100 0 -160 -4 -160 -10z"/>
<path d="M5760 5350 c0 -6 47 -10 120 -10 73 0 120 4 120 10 0 6 -47 10 -120
10 -73 0 -120 -4 -120 -10z"/>
<path d="M2285 5320 c-3 -5 -1 -10 4 -10 6 0 11 5 11 10 0 6 -2 10 -4 10 -3 0
-8 -4 -11 -10z"/>
<path d="M4265 5290 c-3 -5 3 -10 15 -10 12 0 18 5 15 10 -3 6 -10 10 -15 10
-5 0 -12 -4 -15 -10z"/>
<path d="M6240 5264 c0 -14 3 -14 15 -4 8 7 15 14 15 16 0 2 -7 4 -15 4 -8 0
-15 -7 -15 -16z"/>
<path d="M4260 5255 c0 -9 5 -15 11 -13 6 2 11 8 11 13 0 5 -5 11 -11 13 -6 2
-11 -4 -11 -13z"/>
<path d="M4260 5196 c0 -14 5 -28 10 -31 6 -4 10 7 10 24 0 17 -4 31 -10 31
-5 0 -10 -11 -10 -24z"/>
<path d="M5488 4563 c6 -2 18 -2 25 0 6 3 1 5 -13 5 -14 0 -19 -2 -12 -5z"/>
<path d="M5550 4553 c8 -3 18 -10 21 -16 9 -13 42 0 34 13 -3 5 -21 10 -38 9
-18 0 -25 -3 -17 -6z"/>
<path d="M5410 4461 c0 -33 4 -63 10 -66 6 -3 7 1 4 10 -4 11 -2 14 9 10 10
-4 16 3 20 22 4 21 16 34 44 47 34 17 36 19 18 27 -11 4 -39 8 -62 8 l-43 1 0
-59z"/>
<path d="M5303 4500 c-33 -13 -28 -30 7 -30 23 0 30 4 30 20 0 22 -4 23 -37
10z"/>
<path d="M5440 4245 c0 -8 5 -15 10 -15 6 0 10 7 10 15 0 8 -4 15 -10 15 -5 0
-10 -7 -10 -15z"/>
<path d="M5485 4240 c3 -5 8 -10 11 -10 2 0 4 5 4 10 0 6 -5 10 -11 10 -5 0
-7 -4 -4 -10z"/>
<path d="M5476 4211 c-4 -7 -5 -15 -2 -18 9 -9 19 4 14 18 -4 11 -6 11 -12 0z"/>
<path d="M5440 4176 c0 -20 4 -35 9 -31 10 6 8 51 -2 62 -4 3 -7 -10 -7 -31z"/>
<path d="M5470 4155 c0 -8 2 -15 4 -15 2 0 6 7 10 15 3 8 1 15 -4 15 -6 0 -10
-7 -10 -15z"/>
<path d="M5440 4119 c0 -5 5 -7 10 -4 6 3 10 8 10 11 0 2 -4 4 -10 4 -5 0 -10
-5 -10 -11z"/>
<path d="M5470 4114 c0 -8 5 -12 10 -9 6 3 10 10 10 16 0 5 -4 9 -10 9 -5 0
-10 -7 -10 -16z"/>
<path d="M5440 4074 c0 -8 5 -12 10 -9 6 3 10 10 10 16 0 5 -4 9 -10 9 -5 0
-10 -7 -10 -16z"/>
<path d="M5470 4076 c0 -9 5 -16 10 -16 6 0 10 4 10 9 0 6 -4 13 -10 16 -5 3
-10 -1 -10 -9z"/>
<path d="M5471 4034 c0 -11 3 -14 6 -6 3 7 2 16 -1 19 -3 4 -6 -2 -5 -13z"/>
<path d="M4393 3805 c0 -78 13 -117 18 -58 3 23 1 39 -3 37 -4 -2 -9 15 -11
38 -3 32 -4 28 -4 -17z"/>
<path d="M440 3711 c0 -6 5 -11 10 -11 11 0 13 -51 4 -99 -8 -37 -40 -43 -68
-12 -25 28 -64 33 -77 10 -5 -11 -6 -19 -1 -19 18 0 -1 -50 -21 -56 -20 -6
-20 -7 -2 -20 15 -11 19 -26 19 -72 -1 -32 -4 -74 -8 -93 l-6 -36 -58 5 c-86
6 -117 16 -114 35 2 12 -4 17 -19 17 -16 0 -19 3 -11 13 14 16 3 67 -14 67 -8
0 -14 9 -14 20 0 10 -9 24 -20 30 -21 11 -28 40 -9 40 5 0 8 4 4 10 -3 5 -12
7 -20 3 -13 -4 -15 -42 -15 -231 0 -251 0 -251 58 -143 32 58 36 57 47 -6 7
-44 38 -99 66 -116 24 -15 63 18 99 86 17 31 35 57 39 57 4 0 13 -23 20 -51 7
-28 19 -53 27 -56 8 -3 14 -11 14 -18 0 -6 8 -19 18 -28 27 -25 50 -3 54 53 3
47 27 76 53 66 18 -6 30 10 13 17 -10 4 -10 8 1 15 15 10 42 5 52 -10 6 -9 59
36 59 50 0 5 -30 13 -66 17 -51 5 -69 4 -75 -7 -12 -18 -11 -38 2 -38 5 0 7
-5 3 -11 -4 -8 -10 -5 -17 7 -6 11 -15 22 -20 25 -5 4 -2 18 8 33 19 28 44 32
94 15 18 -6 34 -9 37 -7 9 9 24 172 16 178 -12 8 -14 40 -2 40 5 0 10 -6 10
-13 0 -18 50 -14 64 5 6 8 17 13 24 11 6 -3 12 0 12 6 0 6 -6 11 -12 11 -9 0
-8 4 2 10 20 13 4 13 -20 0 -16 -8 -18 -8 -14 5 4 8 2 15 -2 16 -5 0 -19 2
-32 3 -13 2 -25 -1 -28 -6 -9 -14 -24 -9 -24 8 0 13 -7 15 -31 10 -28 -5 -30
-4 -23 17 4 12 14 28 23 34 14 12 14 12 -3 6 -13 -4 -17 -3 -12 5 3 6 1 14 -4
17 -6 4 -15 17 -20 30 -9 25 -70 73 -70 56z m-90 -121 c0 -5 -4 -10 -10 -10
-5 0 -10 5 -10 10 0 6 5 10 10 10 6 0 10 -4 10 -10z m35 -30 c3 -5 1 -10 -4
-10 -6 0 -11 5 -11 10 0 6 2 10 4 10 3 0 8 -4 11 -10z m260 -59 c3 -5 1 -12
-5 -16 -5 -3 -10 1 -10 9 0 18 6 21 15 7z m-65 -41 c0 -5 -2 -10 -4 -10 -3 0
-8 5 -11 10 -3 6 -1 10 4 10 6 0 11 -4 11 -10z m10 -30 c13 -8 13 -10 -2 -10
-9 0 -20 5 -23 10 -8 13 5 13 25 0z m-320 -149 c14 -4 24 -13 23 -18 -1 -6 7
-13 18 -16 15 -4 18 -2 10 7 -10 12 6 16 69 16 67 0 35 -40 -37 -45 -26 -3
-75 -6 -108 -9 -51 -4 -57 -3 -42 8 21 16 23 46 2 46 -9 0 -12 -6 -8 -17 5
-13 2 -15 -15 -11 -11 3 -30 -1 -42 -9 -31 -22 -46 -2 -18 24 34 31 92 40 148
24z m160 -146 c0 -73 -3 -95 -13 -95 -11 0 -12 13 -5 63 5 34 7 70 4 80 -4 18
2 47 10 47 2 0 4 -43 4 -95z m140 79 c0 -8 -5 -12 -10 -9 -6 4 -8 11 -5 16 9
14 15 11 15 -7z m-385 -17 c6 -4 -7 -6 -27 -5 -21 1 -38 4 -38 5 0 8 45 20 50
14 3 -3 10 -9 15 -14z m52 -3 c-3 -3 -12 -4 -19 -1 -8 3 -5 6 6 6 11 1 17 -2
13 -5z m39 -31 c-10 -10 -19 5 -10 18 6 11 8 11 12 0 2 -7 1 -15 -2 -18z m124
17 c0 -5 -4 -10 -10 -10 -5 0 -10 5 -10 10 0 6 5 10 10 10 6 0 10 -4 10 -10z
m-252 -18 c-10 -2 -18 -8 -18 -14 0 -6 -3 -8 -6 -5 -11 10 17 38 30 30 7 -5 5
-9 -6 -11z m89 -38 c-3 -3 -12 -4 -19 -1 -8 3 -5 6 6 6 11 1 17 -2 13 -5z"/>
<path d="M232 3258 c6 -18 28 -21 28 -4 0 9 -7 16 -16 16 -9 0 -14 -5 -12 -12z"/>
<path d="M0 3612 c0 -12 19 -26 26 -19 2 2 -2 10 -11 17 -9 8 -15 8 -15 2z"/>
<path d="M30 3570 c0 -5 7 -10 16 -10 8 0 12 5 9 10 -3 6 -10 10 -16 10 -5 0
-9 -4 -9 -10z"/>
<path d="M4372 3530 c0 -14 2 -19 5 -12 2 6 2 18 0 25 -3 6 -5 1 -5 -13z"/>
<path d="M5698 3513 c7 -3 16 -2 19 1 4 3 -2 6 -13 5 -11 0 -14 -3 -6 -6z"/>
<path d="M5947 3513 c-3 -5 -1 -17 4 -28 7 -17 8 -17 8 8 1 27 -4 34 -12 20z"/>
<path d="M727 3503 c-12 -11 -7 -19 12 -19 11 0 17 5 14 13 -6 14 -16 17 -26
6z"/>
<path d="M5972 3490 c0 -14 2 -19 5 -12 2 6 2 18 0 25 -3 6 -5 1 -5 -13z"/>
<path d="M190 3480 c8 -5 24 -10 35 -10 17 0 17 2 5 10 -8 5 -24 10 -35 10
-17 0 -17 -2 -5 -10z"/>
<path d="M4380 3465 c0 -14 4 -25 9 -25 4 0 6 11 3 25 -2 14 -6 25 -8 25 -2 0
-4 -11 -4 -25z"/>
<path d="M247 3446 c-3 -8 -1 -17 6 -20 8 -3 6 -8 -5 -16 -19 -12 -24 -40 -8
-40 6 0 14 8 17 18 4 9 11 21 17 25 8 6 7 10 -1 13 -7 3 -9 12 -6 20 3 8 1 14
-5 14 -5 0 -12 -6 -15 -14z"/>
<path d="M6351 3444 c0 -11 3 -14 6 -6 3 7 2 16 -1 19 -3 4 -6 -2 -5 -13z"/>
<path d="M5810 3440 c0 -5 5 -10 11 -10 5 0 7 5 4 10 -3 6 -8 10 -11 10 -2 0
-4 -4 -4 -10z"/>
<path d="M5791 3334 c0 -11 3 -14 6 -6 3 7 2 16 -1 19 -3 4 -6 -2 -5 -13z"/>
<path d="M5733 3323 c9 -2 23 -2 30 0 6 3 -1 5 -18 5 -16 0 -22 -2 -12 -5z"/>
<path d="M5950 3300 c0 -5 5 -10 11 -10 5 0 7 5 4 10 -3 6 -8 10 -11 10 -2 0
-4 -4 -4 -10z"/>
<path d="M4441 3244 c0 -11 3 -14 6 -6 3 7 2 16 -1 19 -3 4 -6 -2 -5 -13z"/>
<path d="M1011 3197 c14 -13 39 -21 70 -23 43 -3 49 -1 49 16 0 17 -7 20 -47
21 -27 0 -58 2 -71 3 l-22 3 21 -20z"/>
<path d="M5782 3200 c0 -14 2 -19 5 -12 2 6 2 18 0 25 -3 6 -5 1 -5 -13z"/>
<path d="M1450 3141 c0 -11 4 -22 9 -25 4 -3 6 6 3 19 -5 30 -12 33 -12 6z"/>
<path d="M5783 3120 c0 -25 2 -35 4 -22 2 12 2 32 0 45 -2 12 -4 2 -4 -23z"/>
<path d="M5400 3058 c0 -45 3 -78 7 -75 10 10 11 157 2 157 -5 0 -9 -37 -9
-82z"/>
<path d="M5433 3120 c-1 -11 2 -20 8 -20 5 0 9 9 9 20 0 11 -4 20 -8 20 -4 0
-8 -9 -9 -20z"/>
<path d="M4751 3114 c0 -11 3 -14 6 -6 3 7 2 16 -1 19 -3 4 -6 -2 -5 -13z"/>
<path d="M4831 3103 c2 -24 2 -25 6 -5 8 41 23 23 24 -30 1 -29 4 -41 6 -25 2
15 9 27 14 27 5 0 9 9 9 20 0 11 -6 20 -12 20 -9 0 -8 4 2 10 11 7 7 10 -17
10 -30 0 -33 -3 -32 -27z"/>
<path d="M5709 3088 c0 -18 -2 -52 -4 -75 -2 -24 1 -46 6 -49 5 -3 10 21 10
53 1 32 3 68 4 81 1 12 -2 22 -6 22 -5 0 -9 -15 -10 -32z"/>
<path d="M5740 3094 c0 -14 4 -23 10 -19 6 3 10 15 10 26 0 10 -4 19 -10 19
-5 0 -10 -12 -10 -26z"/>
<path d="M4520 3103 c0 -5 5 -15 10 -23 8 -12 10 -11 10 8 0 12 -4 22 -10 22
-5 0 -10 -3 -10 -7z"/>
<path d="M5930 3060 c0 -22 4 -40 9 -40 4 0 8 18 8 40 0 22 -4 40 -8 40 -5 0
-9 -18 -9 -40z"/>
<path d="M581 3053 c18 -21 35 -40 37 -42 4 -8 53 23 62 39 8 14 2 17 -42 18
-28 0 -56 6 -61 11 -6 6 -15 11 -21 11 -5 0 6 -17 25 -37z"/>
<path d="M940 3082 c-31 -5 -52 -22 -24 -21 31 2 70 14 59 20 -6 3 -21 3 -35
1z"/>
<path d="M5960 3053 c0 -20 3 -34 6 -30 9 9 11 67 2 67 -4 0 -8 -16 -8 -37z"/>
<path d="M90 3070 c12 -7 12 -14 4 -27 -8 -13 -21 -17 -52 -14 -33 2 -42 -1
-42 -13 0 -15 11 -20 38 -17 7 1 12 -2 11 -6 -1 -4 -1 -15 0 -23 1 -12 5 -11
16 4 11 15 23 18 55 13 22 -3 40 -2 40 2 0 4 14 6 30 3 18 -3 30 0 30 7 0 6 7
11 15 11 18 0 19 -12 3 -28 -6 -6 -12 -23 -13 -37 0 -19 5 -25 20 -26 17 -1
16 -2 -5 -8 -17 -5 -21 -9 -12 -15 6 -4 12 -11 12 -17 0 -14 -38 -11 -43 4 -4
10 -7 10 -18 0 -7 -7 -17 -13 -21 -13 -4 0 -8 6 -8 13 0 8 -23 13 -75 15 l-75
3 0 -30 c0 -27 4 -31 28 -32 15 -1 63 -4 107 -6 44 -3 100 -6 125 -7 l45 -1 2
45 c1 25 -1 37 -4 28 -2 -10 -12 -18 -21 -18 -15 0 -15 2 -2 11 11 8 12 12 3
16 -21 8 -16 43 6 43 11 0 23 -4 26 -10 11 -18 22 -10 28 20 6 27 8 28 30 17
12 -7 24 -16 26 -22 1 -5 9 -18 18 -27 8 -9 12 -21 9 -27 -4 -5 -2 -12 3 -15
5 -3 12 2 15 11 5 12 10 13 18 5 8 -8 8 -15 -2 -27 -7 -8 -15 -13 -17 -11 -3
2 -14 -5 -25 -16 -11 -11 -18 -21 -16 -23 8 -8 95 -8 109 1 9 5 19 25 22 44 3
19 9 56 13 83 l7 47 -47 0 c-34 0 -46 -4 -46 -15 0 -11 -5 -10 -21 6 -18 18
-28 20 -85 14 -55 -6 -68 -5 -85 11 -15 14 -24 16 -37 8 -10 -6 -41 -8 -72 -5
-53 6 -55 7 -52 34 3 21 -1 27 -15 27 -15 0 -16 -2 -3 -10z m172 -112 c-7 -7
-10 -5 -7 8 5 29 6 30 12 16 3 -8 1 -18 -5 -24z m183 -18 c3 -5 -1 -10 -9 -10
-9 0 -16 5 -16 10 0 6 4 10 9 10 6 0 13 -4 16 -10z m85 -26 c0 -8 -6 -14 -14
-14 -16 0 -29 27 -20 41 8 13 34 -9 34 -27z"/>
<path d="M5430 3060 c0 -11 5 -20 10 -20 6 0 10 9 10 20 0 11 -4 20 -10 20 -5
0 -10 -9 -10 -20z"/>
<path d="M6314 3059 c-3 -6 -1 -16 5 -22 8 -8 11 -5 11 11 0 24 -5 28 -16 11z"/>
<path d="M5740 3035 c0 -15 4 -24 10 -20 6 3 10 12 10 20 0 8 -4 17 -10 20 -6
4 -10 -5 -10 -20z"/>
<path d="M1050 3010 c0 -20 -3 -40 -7 -43 -4 -4 -6 -33 -4 -65 1 -38 -1 -52
-8 -43 -15 23 -41 5 -41 -29 0 -25 4 -31 18 -28 10 2 16 11 14 21 -2 9 2 17 8
17 5 0 10 -7 10 -15 0 -21 17 -19 23 4 2 10 2 61 -1 111 -4 77 -2 92 9 88 8
-3 13 -14 12 -24 -1 -15 2 -14 17 6 l19 25 10 -28 c6 -15 16 -27 22 -27 8 0 8
-4 -1 -15 -7 -8 -19 -15 -26 -15 -8 0 -14 -4 -14 -9 0 -4 18 -8 41 -8 34 0 42
4 50 24 6 17 14 23 25 19 9 -3 22 -6 30 -6 8 0 14 -10 14 -25 0 -21 5 -25 28
-25 35 0 57 14 47 30 -6 10 -10 9 -17 -3 -14 -26 -38 -8 -38 29 0 27 4 34 20
34 13 0 20 -7 20 -20 0 -15 7 -20 24 -20 25 0 62 28 51 38 -3 4 -10 0 -15 -8
-8 -13 -10 -13 -10 1 0 9 -6 16 -12 17 -7 1 -32 5 -56 10 -23 5 -44 6 -46 3
-4 -6 -39 -3 -178 12 -38 4 -38 4 -38 -33z"/>
<path d="M850 3031 c-8 -6 -19 -7 -25 -3 -5 3 -4 -2 4 -11 10 -13 18 -14 32
-6 11 5 17 14 14 20 -7 11 -6 11 -25 0z"/>
<path d="M5430 3006 c0 -14 5 -26 10 -26 6 0 10 9 10 19 0 11 -4 23 -10 26 -6
4 -10 -5 -10 -19z"/>
<path d="M5930 2994 c0 -8 5 -12 10 -9 6 4 8 11 5 16 -9 14 -15 11 -15 -7z"/>
<path d="M5960 2994 c0 -8 5 -12 10 -9 6 3 10 10 10 16 0 5 -4 9 -10 9 -5 0
-10 -7 -10 -16z"/>
<path d="M6380 3000 c0 -5 5 -10 11 -10 5 0 7 5 4 10 -3 6 -8 10 -11 10 -2 0
-4 -4 -4 -10z"/>
<path d="M562 2988 c3 -7 15 -15 28 -16 21 -3 22 -2 11 12 -16 19 -44 21 -39
4z"/>
<path d="M660 2981 c0 -5 7 -11 15 -15 8 -3 15 -11 15 -18 0 -9 -2 -10 -8 -1
-4 6 -16 13 -27 15 -14 2 -21 -3 -23 -19 -3 -18 0 -21 14 -16 15 5 16 0 12
-48 -2 -30 -12 -70 -20 -89 -9 -19 -18 -56 -21 -82 -4 -44 -3 -47 15 -37 13 7
18 19 17 37 -3 43 0 62 11 62 6 0 10 -22 10 -49 0 -35 4 -51 16 -55 23 -9 24
-8 24 12 0 10 5 23 12 30 8 8 8 12 1 12 -6 0 -14 7 -17 16 -5 13 -1 15 24 12
25 -4 30 -2 24 11 -14 33 -16 61 -5 61 6 0 11 12 11 28 0 18 11 37 34 58 l34
32 -39 6 c-22 3 -48 15 -59 26 -20 20 -70 28 -70 11z m53 -186 c4 -8 2 -17 -3
-20 -6 -4 -10 3 -10 14 0 25 6 27 13 6z"/>
<path d="M850 2955 c0 -13 5 -27 10 -30 6 -3 10 -2 10 4 0 5 3 16 6 24 3 8 -2
17 -10 20 -12 5 -16 0 -16 -18z"/>
<path d="M5390 2945 c0 -14 5 -25 10 -25 6 0 10 11 10 25 0 14 -4 25 -10 25
-5 0 -10 -11 -10 -25z"/>
<path d="M5430 2945 c0 -15 4 -24 10 -20 6 3 10 12 10 20 0 8 -4 17 -10 20 -6
4 -10 -5 -10 -20z"/>
<path d="M5931 2954 c0 -11 3 -14 6 -6 3 7 2 16 -1 19 -3 4 -6 -2 -5 -13z"/>
<path d="M896 2949 c3 -6 10 -23 14 -37 l8 -27 10 25 c9 23 10 21 10 -17 0
-43 -10 -55 -25 -29 -10 18 -63 32 -63 17 0 -6 -7 -11 -15 -11 -18 0 -19 -9
-2 -32 8 -9 35 -19 69 -23 l56 -7 4 69 c3 37 5 68 4 69 -1 1 -18 4 -39 7 -24
4 -35 2 -31 -4z"/>
<path d="M1220 2950 c0 -5 5 -10 10 -10 6 0 10 5 10 10 0 6 -4 10 -10 10 -5 0
-10 -4 -10 -10z"/>
<path d="M5700 2928 c0 -19 2 -20 10 -8 13 19 13 30 0 30 -5 0 -10 -10 -10
-22z"/>
<path d="M1011 2924 c0 -11 3 -14 6 -6 3 7 2 16 -1 19 -3 4 -6 -2 -5 -13z"/>
<path d="M6365 2930 c3 -5 13 -10 21 -10 8 0 14 5 14 10 0 6 -9 10 -21 10 -11
0 -17 -4 -14 -10z"/>
<path d="M5925 2921 c-3 -5 -1 -12 5 -16 5 -3 10 1 10 9 0 18 -6 21 -15 7z"/>
<path d="M1198 2913 c6 -2 12 -11 12 -19 0 -8 5 -14 10 -14 16 0 11 27 -6 34
-9 3 -19 6 -22 5 -4 0 -1 -3 6 -6z"/>
<path d="M1330 2905 c-10 -12 -10 -15 4 -15 9 0 16 7 16 15 0 8 -2 15 -4 15
-2 0 -9 -7 -16 -15z"/>
<path d="M1160 2889 c0 -11 5 -17 10 -14 6 3 10 13 10 21 0 8 -4 14 -10 14 -5
0 -10 -9 -10 -21z"/>
<path d="M1127 2893 c-4 -3 -7 -19 -7 -34 0 -21 -4 -27 -15 -23 -10 4 -15 0
-15 -16 0 -18 5 -21 37 -18 33 3 38 6 40 31 2 25 0 27 -14 15 -14 -11 -15 -9
-11 20 4 31 -1 40 -15 25z"/>
<path d="M348 2873 c6 -2 18 -2 25 0 6 3 1 5 -13 5 -14 0 -19 -2 -12 -5z"/>
<path d="M5920 2869 c0 -5 5 -7 10 -4 6 3 10 8 10 11 0 2 -4 4 -10 4 -5 0 -10
-5 -10 -11z"/>
<path d="M1210 2858 c0 -7 -3 -23 -6 -34 -4 -16 0 -23 17 -27 29 -8 43 1 29
18 -6 8 -10 22 -8 31 2 11 -4 20 -14 22 -10 2 -18 -2 -18 -10z"/>
<path d="M331 2844 c0 -11 3 -14 6 -6 3 7 2 16 -1 19 -3 4 -6 -2 -5 -13z"/>
<path d="M550 2790 c8 -5 20 -10 25 -10 6 0 3 5 -5 10 -8 5 -19 10 -25 10 -5
0 -3 -5 5 -10z"/>
<path d="M4803 2783 c-7 -2 -13 -11 -13 -19 0 -9 -4 -12 -10 -9 -6 3 -7 -1 -3
-10 4 -12 8 -13 13 -5 13 21 22 -7 10 -30 -6 -11 -8 -20 -4 -20 4 0 -1 -9 -11
-20 -9 -10 -22 -18 -27 -17 -6 1 -16 -17 -23 -41 -13 -43 -13 -43 6 -26 11 10
29 33 40 51 11 18 25 31 30 28 4 -3 20 2 34 11 29 19 26 21 54 -29 14 -25 19
-47 15 -62 -7 -28 -14 -31 -32 -13 -7 7 -5 -6 5 -30 9 -23 20 -42 24 -42 4 0
13 16 19 35 6 19 16 33 21 30 5 -4 9 3 9 14 0 10 -5 21 -12 23 -7 3 -9 14 -4
32 4 18 12 26 21 22 9 -3 15 3 17 17 4 29 32 28 36 -1 2 -12 8 -20 13 -17 12
8 12 55 -1 55 -5 0 -10 9 -10 20 0 15 -7 20 -24 20 -38 0 -76 -18 -76 -36 0
-13 -3 -14 -15 -4 -8 7 -13 16 -10 20 6 10 -52 60 -68 59 -7 0 -18 -3 -24 -6z
m169 -70 c-6 -2 -10 -8 -8 -12 3 -4 -4 -8 -15 -8 -17 -2 -18 1 -9 13 7 8 20
14 29 13 10 0 12 -2 3 -6z"/>
<path d="M5137 2764 c-12 -13 -8 -41 9 -55 14 -11 18 -10 30 6 13 18 14 17 14
-8 0 -15 5 -27 11 -27 6 0 9 6 6 14 -3 7 -2 17 1 22 4 5 5 8 3 7 -2 -2 -9 7
-15 20 -11 22 -45 34 -59 21z"/>
<path d="M571 2730 c0 -33 1 -34 11 -12 8 17 8 26 0 34 -9 9 -12 4 -11 -22z"/>
<path d="M984 2724 c-7 -39 -7 -39 23 -48 34 -11 40 26 9 57 l-25 25 -7 -34z"/>
<path d="M0 2706 c0 -29 7 -32 34 -11 22 17 21 20 -11 29 -20 6 -23 4 -23 -18z"/>
<path d="M838 2712 c-8 -28 -2 -32 53 -32 42 0 47 3 51 25 5 23 2 25 -29 25
-26 0 -36 -5 -42 -22 l-9 -23 -9 24 c-9 24 -10 24 -15 3z"/>
<path d="M70 2700 c0 -21 -35 -41 -57 -33 -7 3 -13 1 -13 -5 0 -5 34 -13 76
-17 85 -8 94 -3 93 50 -1 21 -3 24 -6 10 -13 -53 -58 -62 -68 -15 -7 34 -25
41 -25 10z"/>
<path d="M488 2674 c-2 -25 -1 -47 3 -49 3 -2 79 -4 170 -3 113 0 151 3 122 9
-43 8 -157 17 -230 18 -42 1 -43 2 -43 36 0 51 -17 43 -22 -11z"/>
<path d="M5505 2710 c-3 -5 3 -10 14 -10 12 0 21 -4 21 -10 0 -5 -7 -10 -15
-10 -8 0 -15 -7 -15 -15 0 -8 -9 -15 -20 -15 -13 0 -20 -7 -20 -20 0 -11 -4
-20 -9 -20 -5 0 -7 9 -4 20 5 18 0 20 -42 20 l-46 0 20 -29 c12 -16 21 -36 21
-45 0 -22 17 -20 30 4 8 15 17 18 40 13 26 -5 30 -2 30 15 0 26 16 37 24 16 8
-21 8 -20 -9 -38 -8 -8 -11 -17 -7 -20 5 -3 15 5 22 18 7 14 21 27 31 29 23 6
26 55 4 63 -8 3 -17 14 -20 25 -7 20 -39 26 -50 9z m-75 -80 c0 -5 -4 -10 -10
-10 -5 0 -10 5 -10 10 0 6 5 10 10 10 6 0 10 -4 10 -10z"/>
<path d="M190 2675 c0 -26 4 -35 18 -36 29 -1 226 -1 245 0 27 1 24 61 -3 61
-12 0 -20 -7 -21 -17 0 -14 -3 -12 -9 5 -12 29 -54 26 -76 -6 -8 -12 -26 -22
-40 -22 -19 0 -24 5 -24 25 0 14 -4 25 -10 25 -5 0 -10 -11 -10 -25 0 -14 -4
-25 -10 -25 -5 0 -10 11 -10 25 0 20 -5 25 -25 25 -22 0 -25 -4 -25 -35z"/>
<path d="M5300 2693 c0 -9 3 -13 7 -10 3 4 12 2 20 -4 10 -9 13 -7 13 10 0 14
-6 21 -20 21 -12 0 -20 -7 -20 -17z"/>
<path d="M5660 2703 c-23 -9 -45 -45 -45 -76 0 -20 4 -26 15 -20 8 3 25 7 38
7 21 1 22 5 20 48 -2 27 -5 48 -8 47 -3 0 -12 -3 -20 -6z m20 -46 c0 -5 -5 -5
-10 -2 -6 3 -13 -1 -16 -9 -3 -9 -10 -16 -15 -16 -5 0 -2 14 7 31 12 25 18 29
25 18 5 -8 9 -18 9 -22z"/>
<path d="M5879 2692 c-8 -13 -21 -17 -52 -14 -29 2 -38 0 -28 -6 8 -6 11 -17
8 -26 -3 -8 -2 -18 3 -21 6 -4 10 1 10 10 0 26 25 11 26 -16 1 -13 2 -38 3
-55 0 -19 8 -34 17 -38 10 -4 15 -1 13 12 -4 33 13 69 41 85 36 21 37 21 43
-4 3 -12 10 -18 16 -14 18 11 -22 45 -47 40 -13 -2 -20 0 -17 6 4 5 15 9 26 9
18 0 19 1 3 25 -19 29 -49 33 -65 7z m28 -28 c-3 -3 -12 -4 -19 -1 -8 3 -5 6
6 6 11 1 17 -2 13 -5z"/>
<path d="M5103 2692 c-13 -2 -25 -14 -31 -32 -9 -24 -8 -29 9 -33 15 -4 19
-15 20 -49 1 -35 2 -38 8 -18 4 14 4 38 -1 55 -12 44 -10 51 14 62 25 11 13
21 -19 15z"/>
<path d="M5750 2630 c0 -5 4 -10 9 -10 6 0 13 5 16 10 3 6 -1 10 -9 10 -9 0
-16 -4 -16 -10z"/>
<path d="M6005 2607 c-30 -32 -39 -66 -21 -79 5 -3 23 -5 40 -3 17 1 23 0 13
-2 -15 -4 -17 -16 -15 -104 1 -54 5 -99 10 -99 4 0 5 -7 2 -15 -8 -21 2 -19
26 5 11 11 17 26 14 35 -4 10 0 15 15 15 12 0 21 5 21 10 0 6 7 10 15 10 8 0
15 9 15 21 0 12 4 17 11 14 5 -4 9 -17 8 -28 -3 -27 9 -67 21 -67 16 0 20 -33
6 -55 -15 -22 -14 -23 19 -22 27 1 32 4 23 14 -7 9 -7 17 0 26 5 6 12 76 14
154 l4 143 -22 -15 c-29 -19 -34 -19 -34 0 0 8 16 21 35 29 25 11 33 19 29 30
-9 24 -44 20 -44 -5 0 -12 -8 -23 -20 -26 -15 -4 -20 -14 -20 -39 0 -19 5 -34
11 -34 6 0 9 -10 7 -22 -2 -17 -10 -23 -28 -23 -18 0 -26 -6 -30 -24 -3 -13
-11 -26 -17 -28 -10 -4 -12 12 -8 63 2 37 1 72 -3 78 -3 6 -7 17 -8 24 -3 18
-34 52 -48 52 -6 0 -24 -15 -41 -33z"/>
<path d="M6378 2633 c7 -3 16 -2 19 1 4 3 -2 6 -13 5 -11 0 -14 -3 -6 -6z"/>
<path d="M5811 2594 c0 -11 3 -14 6 -6 3 7 2 16 -1 19 -3 4 -6 -2 -5 -13z"/>
<path d="M5570 2590 c0 -5 5 -10 11 -10 5 0 7 5 4 10 -3 6 -8 10 -11 10 -2 0
-4 -4 -4 -10z"/>
<path d="M5674 2585 c-9 -23 4 -48 22 -41 9 3 22 6 30 6 8 0 14 10 14 25 0 21
-5 25 -30 25 -18 0 -33 -6 -36 -15z"/>
<path d="M5459 2568 c0 -1 -3 -12 -6 -23 -2 -11 -7 -47 -10 -81 -4 -48 -2 -62
9 -67 12 -4 14 2 7 36 -9 50 7 129 22 106 8 -11 9 -10 7 5 -2 16 -26 36 -29
24z"/>
<path d="M5599 2556 c17 -20 4 -41 -15 -25 -11 9 -15 8 -20 -5 -3 -9 -4 -23 0
-31 6 -17 -9 -21 -19 -5 -9 15 -25 12 -25 -5 0 -11 12 -15 43 -16 l42 -1 -29
-12 c-27 -13 -28 -13 -6 -19 12 -3 19 -10 16 -16 -3 -5 2 -12 11 -14 17 -4 17
-5 1 -6 -10 0 -18 -8 -18 -16 0 -21 -18 -19 -23 3 -4 15 -5 15 -6 -2 -1 -15
-7 -17 -37 -14 -26 3 -38 0 -45 -13 -7 -14 -5 -16 11 -12 11 3 20 0 20 -6 0
-10 -14 -15 -32 -12 -11 1 -10 -17 1 -23 5 -4 12 0 15 6 3 7 3 -1 1 -19 l-5
-31 73 -7 c40 -4 80 -5 88 -3 16 3 69 -51 69 -71 0 -6 -11 -11 -24 -11 -18 0
-25 7 -31 33 -6 25 -9 28 -12 11 -2 -11 3 -33 11 -49 14 -27 18 -28 75 -26 52
2 61 0 61 -15 0 -10 -7 -26 -17 -36 -15 -17 -15 -18 10 -18 15 0 30 8 36 19
15 28 47 32 68 9 14 -16 26 -19 58 -15 22 3 41 11 43 16 2 6 16 11 30 12 l27
1 -30 9 c-19 5 -31 5 -33 -1 -2 -6 -8 -10 -13 -10 -6 0 -7 5 -3 11 5 8 -3 10
-27 6 -19 -3 -43 -2 -54 2 -19 8 -19 9 5 16 14 5 37 8 53 7 15 -1 27 2 27 8 0
17 58 11 69 -7 8 -14 12 -15 25 -4 20 17 12 31 -19 31 -27 0 -34 8 -47 59 -20
75 -21 130 -4 137 26 10 1 44 -34 44 -50 0 -58 -7 -50 -45 l8 -34 -77 -1 c-42
-1 -91 -2 -108 -2 -22 1 -33 -4 -33 -14 0 -18 -36 -54 -54 -54 -20 0 -42 86
-27 104 9 11 9 20 2 35 -9 16 -7 22 7 33 22 15 25 48 5 48 -7 0 -12 10 -12 23
1 16 2 18 6 5 2 -10 11 -18 19 -18 25 0 -17 62 -45 68 -12 3 -12 0 -2 -12z
m-7 -220 c11 -16 10 -26 -3 -26 -13 0 -39 25 -39 39 0 12 32 2 42 -13z m-42
-48 c18 11 20 10 20 -8 0 -23 0 -23 -34 -10 -14 5 -26 15 -26 22 0 9 3 8 10
-2 8 -12 13 -13 30 -2z m65 -8 c3 -5 1 -10 -4 -10 -6 0 -11 5 -11 10 0 6 2 10
4 10 3 0 8 -4 11 -10z m303 -52 c3 -30 -1 -38 -18 -43 -29 -9 -32 -4 -24 44 9
55 37 54 42 -1z m49 -30 c-3 -8 -6 -5 -6 6 -1 11 2 17 5 13 3 -3 4 -12 1 -19z"/>
<path d="M5785 2560 c-3 -5 -1 -10 4 -10 6 0 11 5 11 10 0 6 -2 10 -4 10 -3 0
-8 -4 -11 -10z"/>
<path d="M6122 2550 c0 -14 2 -19 5 -12 2 6 2 18 0 25 -3 6 -5 1 -5 -13z"/>
<path d="M5242 2541 c-9 -6 -11 -19 -7 -44 7 -35 6 -36 -32 -45 -64 -17 -97
-11 -102 18 -6 49 -44 54 -60 8 -13 -36 -4 -50 31 -53 20 -1 23 -8 26 -48 2
-31 -1 -47 -9 -47 -6 0 -9 -6 -6 -14 3 -8 1 -17 -6 -20 -9 -5 -9 -7 1 -12 6
-3 12 -21 12 -40 0 -69 52 -50 56 21 3 45 3 45 21 45 16 0 16 1 0 13 -16 11
-16 14 -1 36 16 23 18 23 31 6 7 -11 13 -34 13 -52 0 -29 -3 -33 -25 -33 -14
0 -25 -5 -25 -10 0 -6 11 -8 26 -4 29 7 44 -7 44 -43 0 -20 5 -23 43 -23 24 0
47 -4 53 -10 6 -6 27 -3 59 11 l50 20 -81 -6 -81 -5 -7 31 c-3 18 -9 71 -12
118 -6 79 -5 84 9 65 9 -11 17 -46 19 -77 4 -76 26 -77 24 -1 -1 30 2 60 6 67
11 18 30 -43 26 -85 -2 -26 1 -38 9 -38 9 0 13 22 15 75 0 41 1 81 2 88 1 6
-5 11 -12 9 -7 -1 -31 2 -52 8 -35 9 -39 14 -42 45 -2 26 -6 32 -16 26z"/>
<path d="M4950 2522 c0 -10 22 -32 32 -32 15 0 8 28 -8 34 -21 8 -24 8 -24 -2z"/>
<path d="M5500 2505 c0 -14 2 -25 4 -25 2 0 6 11 8 25 3 14 1 25 -3 25 -5 0
-9 -11 -9 -25z"/>
<path d="M5945 2510 c4 -6 -9 -10 -32 -10 -36 -1 -37 -2 -19 -15 11 -8 32 -15
48 -15 23 0 28 4 28 25 0 16 -6 25 -16 25 -8 0 -12 -4 -9 -10z"/>
<path d="M0 2402 c0 -69 0 -71 28 -75 l27 -4 -27 -2 c-27 -1 -41 -21 -15 -21
8 0 7 -4 -3 -10 -13 -9 -13 -10 0 -10 13 0 13 -1 0 -11 -11 -8 -1 -9 35 -4 57
8 68 12 60 26 -4 5 -1 9 4 9 6 0 11 -9 11 -20 0 -12 -7 -20 -17 -20 -9 0 -13
-3 -9 -7 4 -5 13 -8 19 -8 7 0 13 -8 15 -19 4 -17 -1 -18 -41 -12 -39 6 -49 4
-66 -13 -12 -12 -21 -23 -21 -25 0 -8 50 1 62 11 7 6 28 10 46 8 19 -2 39 3
47 12 12 11 15 12 15 1 0 -9 3 -10 8 -2 4 6 21 11 37 11 52 -1 88 19 62 35 -8
5 -4 8 11 8 15 0 22 -6 22 -20 0 -22 25 -27 50 -10 11 8 8 9 -12 4 -18 -4 -28
-2 -28 5 0 15 52 14 75 -2 14 -11 15 -16 5 -22 -9 -5 -11 -4 -6 3 9 15 0 14
-44 -4 l-35 -14 55 6 c30 3 66 7 80 8 31 1 36 18 9 28 -12 5 -18 4 -14 -2 7
-11 -6 -13 -29 -4 -25 10 1 35 28 28 12 -3 32 -1 45 4 24 9 24 9 3 14 -14 4
-20 2 -15 -5 4 -7 0 -8 -11 -4 -10 4 -20 7 -22 7 -3 0 -2 5 1 10 8 14 -28 13
-42 -1 -6 -6 -9 -18 -6 -25 3 -8 0 -14 -6 -14 -6 0 -11 4 -11 9 0 5 -10 7 -22
5 -15 -3 -12 1 10 11 17 8 32 17 32 20 0 4 -13 3 -75 -9 -44 -8 -65 -19 -65
-33 0 -10 -4 -11 -19 -3 -29 15 -71 13 -71 -4 0 -8 -7 -16 -14 -19 -20 -8 -33
32 -15 44 10 6 11 9 2 9 -7 0 -13 4 -13 10 0 5 7 6 17 3 12 -5 14 -3 8 7 -5 9
-4 11 4 6 6 -4 9 -12 6 -17 -8 -11 -3 -11 27 0 13 5 26 9 30 10 4 1 21 6 38
11 21 6 30 5 30 -3 0 -7 5 -4 11 5 5 9 16 15 24 12 8 -4 12 -10 9 -15 -3 -5 2
-6 11 -2 13 5 14 7 3 14 -9 6 -2 9 20 9 32 0 43 14 20 23 -7 3 -3 6 10 6 12 1
22 6 22 12 0 8 5 8 15 -1 8 -7 24 -10 35 -7 11 3 23 1 26 -4 3 -5 -11 -9 -30
-9 -20 0 -36 -4 -36 -9 0 -4 -15 -13 -32 -19 -30 -10 -28 -11 22 -6 98 10 180
26 180 36 0 5 -9 6 -20 3 -24 -7 -41 22 -20 35 7 4 9 13 5 19 -8 14 -117 13
-126 -1 -3 -5 -19 -3 -35 4 l-29 12 45 6 c25 3 -52 8 -171 11 -163 3 -220 7
-232 18 -16 12 -17 7 -17 -57z m160 20 c0 -4 14 -9 30 -10 17 -1 30 2 30 8 0
12 67 14 74 2 3 -5 -4 -16 -15 -25 -25 -22 -28 -21 -22 3 5 20 -11 28 -22 10
-3 -5 -32 -9 -63 -9 -38 1 -50 4 -37 9 14 6 4 9 -35 12 l-55 4 58 2 c31 1 57
-2 57 -6z m207 -8 c2 -7 -6 -10 -22 -6 -35 6 -44 24 -9 20 15 -2 29 -8 31 -14z
m186 -11 c-7 -2 -21 -2 -30 0 -10 3 -4 5 12 5 17 0 24 -2 18 -5z m-223 -14 c0
-5 -4 -7 -10 -4 -5 3 -10 -2 -10 -12 0 -15 -2 -16 -10 -3 -15 23 -12 30 10 30
11 0 20 -5 20 -11z m-197 -6 c-13 -2 -33 -2 -45 0 -13 2 -3 4 22 4 25 0 35 -2
23 -4z m106 -7 c16 -19 0 -28 -36 -20 -23 4 -25 3 -13 -6 12 -10 12 -11 -5 -5
-11 4 -31 7 -45 7 -22 -1 -23 0 -5 7 11 5 23 7 28 4 4 -2 14 3 23 11 19 20 38
20 53 2z m95 -30 c-3 -8 -12 -12 -21 -9 -12 5 -12 7 -1 14 20 13 28 11 22 -5z
m-216 -8 c20 3 34 1 31 -2 -4 -4 -23 -9 -43 -12 -30 -3 -36 -1 -35 13 0 10 3
13 5 8 2 -6 21 -9 42 -7z m-48 -46 c0 -4 -10 -9 -22 -9 -18 -2 -20 0 -8 7 18
12 30 13 30 2z m150 -46 c0 -2 -9 -6 -20 -9 -11 -3 -18 -1 -14 4 5 9 34 13 34
5z"/>
<path d="M215 2370 c3 -5 11 -10 16 -10 6 0 7 5 4 10 -3 6 -11 10 -16 10 -6 0
-7 -4 -4 -10z"/>
<path d="M580 2419 c0 -5 19 -9 42 -9 49 0 47 5 -4 13 -21 3 -38 2 -38 -4z"/>
<path d="M675 2420 c-4 -6 13 -10 44 -10 27 0 53 5 56 10 4 6 -13 10 -44 10
-27 0 -53 -4 -56 -10z"/>
<path d="M905 2410 c-7 -11 9 -11 45 0 24 8 24 8 -7 9 -17 1 -35 -3 -38 -9z"/>
<path d="M4880 2396 c0 -9 -4 -14 -10 -11 -5 3 -7 0 -4 -8 3 -8 14 -17 25 -20
16 -4 19 -2 13 16 -9 31 -24 45 -24 23z"/>
<path d="M4937 2399 c7 -7 15 -10 18 -7 3 3 -2 9 -12 12 -14 6 -15 5 -6 -5z"/>
<path d="M5500 2400 c8 -5 20 -10 25 -10 6 0 3 5 -5 10 -8 5 -19 10 -25 10 -5
0 -3 -5 5 -10z"/>
<path d="M726 2391 c-4 -5 3 -7 14 -4 23 6 26 13 6 13 -8 0 -17 -4 -20 -9z"/>
<path d="M868 2393 c7 -3 16 -2 19 1 4 3 -2 6 -13 5 -11 0 -14 -3 -6 -6z"/>
<path d="M754 2375 c-10 -8 -14 -15 -7 -15 19 0 43 11 43 21 0 13 -14 11 -36
-6z"/>
<path d="M4929 2358 c-1 -13 -2 -30 -3 -38 -1 -8 -5 -20 -9 -27 -11 -17 33
-27 79 -18 26 4 33 10 26 17 -7 7 -20 7 -42 0 -28 -10 -32 -9 -40 14 -7 16 -6
32 0 44 7 13 7 21 0 25 -5 3 -11 -4 -11 -17z"/>
<path d="M4966 2335 c-6 -17 34 -31 60 -21 21 8 6 29 -17 23 -11 -3 -19 -1
-19 4 0 15 -17 10 -24 -6z"/>
<path d="M658 2323 c6 -2 18 -2 25 0 6 3 1 5 -13 5 -14 0 -19 -2 -12 -5z"/>
<path d="M565 2300 c3 -5 16 -10 28 -9 21 0 21 1 2 9 -28 12 -37 12 -30 0z"/>
<path d="M765 2300 c-19 -8 -19 -9 2 -9 12 -1 25 4 28 9 7 12 -2 12 -30 0z"/>
<path d="M6072 2291 c-8 -5 9 -8 43 -8 34 0 51 3 43 8 -7 5 -26 9 -43 9 -16 0
-36 -4 -43 -9z"/>
<path d="M528 2283 c7 -3 16 -2 19 1 4 3 -2 6 -13 5 -11 0 -14 -3 -6 -6z"/>
<path d="M833 2265 c-15 -13 -23 -25 -17 -25 10 0 54 36 54 45 0 10 -9 4 -37
-20z"/>
<path d="M5450 2280 c0 -5 5 -10 11 -10 5 0 7 5 4 10 -3 6 -8 10 -11 10 -2 0
-4 -4 -4 -10z"/>
<path d="M198 2273 c7 -3 16 -2 19 1 4 3 -2 6 -13 5 -11 0 -14 -3 -6 -6z"/>
<path d="M5393 2273 c9 -2 25 -2 35 0 9 3 1 5 -18 5 -19 0 -27 -2 -17 -5z"/>
<path d="M62 2251 c-11 -7 -11 -9 2 -14 10 -4 16 -1 16 8 0 17 -1 17 -18 6z"/>
<path d="M507 2241 c-10 -12 -9 -14 6 -8 10 4 25 7 33 7 8 0 14 4 14 9 0 15
-40 9 -53 -8z"/>
<path d="M4972 2244 c10 -10 20 -16 22 -13 3 3 -5 11 -17 18 -21 13 -21 12 -5
-5z"/>
<path d="M585 2240 c3 -5 10 -10 16 -10 5 0 9 5 9 10 0 6 -7 10 -16 10 -8 0
-12 -4 -9 -10z"/>
<path d="M534 2215 c-10 -8 -28 -15 -39 -15 l-20 -1 20 -8 c11 -5 22 -4 23 0
2 5 10 9 17 9 7 0 15 7 19 15 7 19 5 19 -20 0z"/>
<path d="M705 2220 c-8 -13 5 -13 25 0 13 8 13 10 -2 10 -9 0 -20 -4 -23 -10z"/>
<path d="M667 2205 c3 -8 9 -12 14 -9 12 7 11 11 -5 17 -10 4 -13 1 -9 -8z"/>
<path d="M269 2206 c-3 -3 -20 -8 -39 -11 -19 -3 -42 -13 -50 -21 -13 -14 -12
-14 14 -4 16 6 35 9 43 6 7 -3 13 -1 13 4 0 5 19 7 43 4 l42 -4 -29 15 c-32
17 -31 17 -37 11z"/>
<path d="M425 2200 c-19 -8 -19 -9 3 -9 12 -1 22 4 22 9 0 6 -1 10 -2 9 -2 0
-12 -4 -23 -9z"/>
<path d="M692 2188 c-18 -11 -32 -22 -32 -25 0 -7 43 8 63 22 32 22 3 25 -31
3z"/>
<path d="M5165 2180 c-18 -8 -18 -9 5 -9 14 0 32 4 40 9 12 8 12 10 -5 9 -11
0 -29 -4 -40 -9z"/>
<path d="M430 2170 c0 -6 11 -8 28 -4 39 10 40 14 4 14 -18 0 -32 -5 -32 -10z"/>
<path d="M550 2170 c8 -5 0 -11 -21 -19 -40 -14 -59 -14 -39 0 13 9 13 10 0 6
-8 -2 -14 -9 -13 -15 2 -6 -22 -16 -53 -23 -30 -7 -51 -16 -46 -21 5 -5 52 7
107 27 54 19 100 35 102 35 2 0 3 4 3 9 0 5 -12 9 -26 9 -16 0 -21 -4 -14 -8z"/>
<path d="M365 2159 c-11 -16 -1 -19 13 -3 7 8 8 14 3 14 -5 0 -13 -5 -16 -11z"/>
<path d="M5570 2161 c-8 -5 -31 -16 -50 -25 l-35 -17 35 8 c19 4 56 7 83 7 49
1 55 4 35 24 -14 14 -46 15 -68 3z"/>
<path d="M78 2154 c-4 -3 -12 -7 -20 -8 -52 -9 -80 -36 -37 -36 11 0 17 5 14
10 -8 13 -3 13 31 0 24 -10 26 -9 14 6 -12 14 -11 15 5 12 10 -1 20 3 22 10 5
12 -18 17 -29 6z"/>
<path d="M125 2150 c-3 -5 1 -10 10 -10 9 0 13 5 10 10 -3 6 -8 10 -10 10 -2
0 -7 -4 -10 -10z"/>
<path d="M310 2148 c0 -4 -7 -8 -15 -8 -8 0 -23 -4 -33 -9 -9 -5 -32 -15 -50
-22 -24 -8 -30 -14 -20 -20 19 -12 30 -11 22 3 -4 7 -3 8 5 4 6 -4 18 0 27 8
8 9 24 16 34 16 10 0 22 5 26 11 3 6 15 9 25 6 12 -3 19 0 19 8 0 8 -9 13 -20
12 -11 -1 -20 -5 -20 -9z"/>
<path d="M590 2150 c-8 -5 -37 -17 -65 -27 -31 -11 -43 -19 -32 -21 10 -2 23
1 30 6 7 5 29 15 49 21 21 7 40 17 43 22 8 11 -5 11 -25 -1z"/>
<path d="M759 2143 c-13 -17 -13 -17 6 -3 11 8 22 16 24 17 2 2 0 3 -6 3 -6 0
-17 -8 -24 -17z"/>
<path d="M425 2140 c3 -5 8 -10 11 -10 2 0 4 5 4 10 0 6 -5 10 -11 10 -5 0 -7
-4 -4 -10z"/>
<path d="M800 2125 c-13 -14 -28 -25 -34 -24 -26 3 -33 -2 -30 -23 4 -34 4
-34 15 -15 6 9 15 15 20 11 5 -3 8 -1 7 4 -2 5 14 24 36 41 21 17 32 31 24 31
-8 0 -25 -11 -38 -25z"/>
<path d="M176 2131 c-3 -5 -27 -14 -52 -20 -26 -7 -44 -15 -40 -18 8 -8 116
29 116 39 0 11 -17 10 -24 -1z"/>
<path d="M575 2110 c-16 -7 -17 -9 -3 -9 9 -1 20 4 23 9 7 11 7 11 -20 0z"/>
<path d="M651 2106 c-6 -7 -29 -21 -51 -31 -22 -10 -40 -22 -40 -27 0 -4 -8
-8 -19 -8 -10 0 -33 -6 -51 -14 -28 -11 -30 -14 -12 -18 12 -3 49 8 88 27 38
19 72 31 76 28 5 -2 8 -1 7 4 -4 21 2 32 19 35 11 2 13 6 6 11 -7 4 -17 1 -23
-7z"/>
<path d="M897 2092 c-20 -21 -23 -29 -12 -29 8 0 13 3 10 5 -3 3 5 16 17 29
12 13 19 23 17 23 -3 0 -17 -13 -32 -28z"/>
<path d="M246 2085 c-38 -25 -158 -77 -173 -74 -4 1 -16 -1 -25 -5 -10 -4 -23
-6 -30 -3 -7 3 -3 6 10 6 12 1 22 6 22 12 0 6 7 9 15 5 19 -7 66 14 59 25 -3
5 0 9 7 9 10 0 10 3 1 12 -9 9 -15 10 -20 2 -7 -11 -53 -25 -84 -25 -21 0 -28
-20 -26 -76 0 -25 6 -44 14 -47 8 -3 11 0 7 9 -4 11 2 15 18 14 13 -1 30 0 38
2 7 2 16 -2 18 -8 3 -8 -5 -13 -21 -13 -13 0 -28 -5 -32 -11 -3 -6 -15 -9 -25
-6 -14 4 -19 0 -19 -15 0 -11 4 -18 8 -16 4 2 29 12 55 23 26 11 47 25 47 30
0 6 15 20 33 33 23 16 27 22 14 22 -10 0 -16 4 -13 9 4 5 -4 7 -16 3 -12 -3
-17 -7 -10 -10 6 -2 12 -10 12 -18 0 -16 -36 -19 -45 -4 -3 6 -12 10 -18 10
-7 0 -6 -4 3 -10 12 -8 10 -10 -8 -10 -15 0 -22 5 -19 13 2 6 16 11 31 10 14
-1 26 3 26 8 0 6 16 17 35 25 41 17 48 17 40 4 -3 -6 1 -7 9 -4 9 3 14 11 13
17 -1 7 8 12 20 11 12 0 21 4 20 10 -1 6 6 10 15 10 10 -1 15 2 12 7 -3 5 5 8
18 6 14 -1 23 4 26 16 5 24 -19 21 -62 -8z m-136 -39 c0 -2 -7 -6 -15 -10 -8
-3 -15 -1 -15 4 0 6 7 10 15 10 8 0 15 -2 15 -4z"/>
<path d="M27 2093 c-27 -4 -39 -23 -14 -23 24 0 57 12 57 21 0 5 -3 8 -7 8 -5
-1 -20 -4 -36 -6z"/>
<path d="M844 2084 c-18 -14 -18 -15 4 -4 12 6 22 13 22 15 0 8 -5 6 -26 -11z"/>
<path d="M5160 2091 c-25 -7 -25 -7 -4 -19 16 -8 30 -8 60 3 21 8 32 14 24 15
-8 0 -24 2 -35 4 -11 3 -31 1 -45 -3z"/>
<path d="M148 2083 c7 -3 16 -2 19 1 4 3 -2 6 -13 5 -11 0 -14 -3 -6 -6z"/>
<path d="M308 2066 c-48 -23 -81 -46 -75 -52 5 -5 115 55 122 67 8 11 9 12
-47 -15z"/>
<path d="M641 2035 c-19 -14 -37 -22 -40 -19 -3 3 1 9 9 14 8 6 12 10 8 10 -4
0 -22 -9 -40 -21 -25 -16 -27 -19 -9 -14 16 5 21 4 17 -4 -12 -20 9 -12 64 24
30 19 48 34 40 34 -8 0 -30 -11 -49 -24z"/>
<path d="M800 2050 c-8 -5 -12 -11 -10 -14 3 -2 14 2 24 10 22 15 10 19 -14 4z"/>
<path d="M899 2044 c-7 -9 -22 -20 -34 -24 -20 -9 -20 -9 1 -9 21 -1 62 34 52
44 -3 3 -11 -2 -19 -11z"/>
<path d="M410 2040 c-13 -8 -13 -10 2 -10 9 0 20 5 23 10 8 13 -5 13 -25 0z"/>
<path d="M376 2013 c-6 -14 -5 -15 5 -6 7 7 10 15 7 18 -3 3 -9 -2 -12 -12z"/>
<path d="M700 2005 c-14 -8 -20 -14 -14 -15 5 0 19 7 30 15 24 18 16 19 -16 0z"/>
<path d="M760 2000 c0 -5 -7 -10 -16 -10 -21 0 -154 -71 -154 -82 0 -5 17 2
38 15 20 13 58 32 84 42 47 17 83 45 59 45 -6 0 -11 -4 -11 -10z"/>
<path d="M935 2000 c3 -5 8 -10 11 -10 2 0 4 5 4 10 0 6 -5 10 -11 10 -5 0 -7
-4 -4 -10z"/>
<path d="M325 1990 c-19 -8 -19 -9 2 -9 12 -1 25 4 28 9 7 12 -2 12 -30 0z"/>
<path d="M413 1982 c-71 -38 -143 -84 -143 -91 0 -8 -65 -41 -81 -41 -6 0 -8
4 -5 9 3 5 -26 -7 -65 -27 -58 -28 -73 -32 -80 -21 -13 21 -11 25 17 37 14 7
23 8 19 3 -9 -15 13 -23 32 -11 15 9 15 10 -5 5 -22 -6 -23 -5 -12 15 16 30
10 33 -44 19 -39 -10 -46 -15 -46 -36 0 -13 4 -21 10 -18 5 3 10 -1 10 -10 0
-9 -4 -14 -10 -10 -6 3 -9 -31 -8 -91 2 -89 3 -97 23 -104 12 -5 25 -17 29
-26 6 -16 8 -16 16 -4 8 13 10 12 10 -3 0 -14 5 -17 22 -11 20 6 21 5 6 -10
-9 -9 -24 -13 -32 -10 -9 3 -16 1 -16 -5 0 -6 6 -11 13 -11 8 0 20 -11 27 -25
13 -24 30 -34 30 -17 0 10 50 37 62 34 22 -5 4 25 -21 36 -34 15 -32 46 2 57
14 4 17 8 10 12 -22 9 -14 23 13 23 20 0 25 4 20 16 -3 9 -6 19 -6 24 0 5 -8
16 -17 26 -16 16 -16 16 5 10 12 -4 22 -3 22 2 0 16 -26 21 -66 15 -56 -9 -37
8 70 62 53 26 104 56 115 66 11 10 21 14 23 8 2 -6 11 -7 21 -4 9 4 15 11 12
15 -7 12 -55 3 -73 -13 -10 -9 -48 -31 -87 -50 -52 -27 -73 -33 -83 -25 -10 9
-12 8 -10 -2 3 -14 -61 -52 -74 -43 -10 6 -10 23 0 22 4 -1 16 -1 27 0 17 1
18 3 5 11 -13 9 -13 10 0 10 8 0 28 11 43 24 16 14 35 22 42 20 16 -7 65 18
128 63 26 19 47 31 47 27 0 -4 9 3 19 15 11 12 21 22 23 21 6 -3 58 20 58 25
0 9 -13 5 -47 -13z m-363 -196 c0 -3 -4 -8 -10 -11 -5 -3 -10 -1 -10 4 0 6 5
11 10 11 6 0 10 -2 10 -4z m4 -34 c2 -4 -4 -8 -14 -8 -10 0 -16 4 -14 8 3 4 9
8 14 8 5 0 11 -4 14 -8z m56 -28 c0 -14 -3 -14 -15 -4 -8 7 -15 14 -15 16 0 2
7 4 15 4 8 0 15 -7 15 -16z m-40 -14 c0 -7 -13 -7 -38 -1 -2 1 -1 5 3 11 6 10
35 2 35 -10z m126 -31 c0 -14 -7 -19 -26 -19 -18 0 -21 3 -11 9 9 6 10 11 2
15 -17 11 -4 25 17 19 10 -2 18 -13 18 -24z m-102 -10 c-5 -9 1 -10 22 -5 24
5 26 5 10 -5 -13 -8 -15 -13 -6 -19 8 -5 5 -9 -9 -13 -12 -3 -19 -1 -15 4 3 5
0 9 -6 9 -6 0 -8 5 -5 10 3 6 -2 10 -12 11 -16 0 -16 1 2 9 27 12 27 12 19 -1z
m56 -49 c-8 -5 -19 -10 -25 -10 -5 0 -3 5 5 10 8 5 20 10 25 10 6 0 3 -5 -5
-10z m-40 -16 c0 -8 -19 -13 -24 -6 -3 5 1 9 9 9 8 0 15 -2 15 -3z"/>
<path d="M170 1960 c-32 -17 -47 -29 -36 -30 18 0 106 46 106 55 0 9 -16 4
-70 -25z"/>
<path d="M560 1980 c8 -5 22 -10 30 -10 13 0 13 1 0 10 -8 5 -22 10 -30 10
-13 0 -13 -1 0 -10z"/>
<path d="M268 1969 c-14 -6 -29 -16 -32 -24 -4 -11 2 -11 29 2 19 9 35 20 35
25 0 4 -1 8 -2 7 -2 0 -15 -5 -30 -10z"/>
<path d="M500 1963 c-19 -9 -30 -18 -24 -20 16 -5 64 15 64 27 0 5 -1 10 -2 9
-2 0 -19 -8 -38 -16z"/>
<path d="M868 1972 c-10 -2 -18 -8 -18 -13 0 -11 11 -11 30 1 18 11 11 18 -12
12z"/>
<path d="M6310 1950 c1 -42 69 -200 87 -200 13 0 -5 88 -22 108 -11 12 -30 42
-42 65 -13 23 -23 35 -23 27z"/>
<path d="M555 1929 c-16 -10 -26 -19 -22 -19 11 0 67 29 67 35 0 9 -15 4 -45
-16z"/>
<path d="M808 1939 c-20 -11 -24 -29 -7 -29 5 0 7 5 4 10 -3 6 1 10 9 10 9 0
16 5 16 10 0 12 0 12 -22 -1z"/>
<path d="M161 1911 c-13 -10 -21 -24 -18 -32 4 -10 6 -8 6 5 1 11 6 16 14 13
7 -3 19 4 25 14 15 24 4 24 -27 0z"/>
<path d="M425 1910 c-18 -8 -17 -9 8 -9 15 -1 27 4 27 9 0 12 -8 12 -35 0z"/>
<path d="M756 1911 c-19 -7 -19 -8 2 -13 15 -4 22 -2 22 8 0 8 -1 14 -2 13 -2
0 -12 -4 -22 -8z"/>
<path d="M107 1889 c4 -13 8 -18 11 -10 2 7 -1 18 -6 23 -8 8 -9 4 -5 -13z"/>
<path d="M234 1895 c-10 -8 -14 -15 -8 -15 6 0 17 7 24 15 16 19 9 19 -16 0z"/>
<path d="M640 1900 c-13 -8 -12 -10 3 -10 9 0 17 5 17 10 0 12 -1 12 -20 0z"/>
<path d="M466 1885 c-11 -8 -17 -17 -14 -20 2 -3 15 4 28 15 26 23 15 27 -14
5z"/>
<path d="M520 1890 c-13 -8 -13 -10 2 -10 9 0 20 5 23 10 8 13 -5 13 -25 0z"/>
<path d="M683 1890 c-13 -5 -23 -14 -23 -20 0 -13 27 -13 35 1 4 6 13 8 19 6
7 -3 13 1 13 9 0 16 -12 17 -44 4z"/>
<path d="M853 1884 c-15 -16 -16 -24 -4 -24 8 0 24 30 19 35 -2 2 -9 -3 -15
-11z"/>
<path d="M995 1890 c-13 -6 -15 -9 -5 -9 8 0 22 4 30 9 18 12 2 12 -25 0z"/>
<path d="M332 1854 c-12 -8 -22 -19 -22 -25 0 -12 38 12 44 28 7 16 5 16 -22
-3z"/>
<path d="M473 1858 c-12 -6 -24 -17 -27 -24 -7 -19 -5 -18 34 11 35 26 32 32
-7 13z"/>
<path d="M793 1855 c0 -8 4 -12 9 -9 5 3 6 10 3 15 -9 13 -12 11 -12 -6z"/>
<path d="M620 1849 c0 -5 5 -7 10 -4 6 3 10 8 10 11 0 2 -4 4 -10 4 -5 0 -10
-5 -10 -11z"/>
<path d="M750 1850 c-13 -8 -13 -10 2 -10 9 0 20 5 23 10 8 13 -5 13 -25 0z"/>
<path d="M5480 1845 c0 0 9 -8 19 -17 18 -16 20 -15 18 1 0 9 -9 17 -19 17
-10 0 -18 -1 -18 -1z"/>
<path d="M684 1831 c4 -6 -4 -13 -19 -17 -14 -3 -25 -10 -25 -15 0 -14 20 -11
37 7 9 8 22 13 29 10 22 -8 16 2 -7 15 -14 7 -19 7 -15 0z"/>
<path d="M922 1828 c-19 -19 -14 -30 8 -18 11 6 20 15 20 20 0 14 -14 12 -28
-2z"/>
<path d="M5530 1825 c0 -8 4 -15 10 -15 5 0 7 7 4 15 -4 8 -8 15 -10 15 -2 0
-4 -7 -4 -15z"/>
<path d="M288 1811 c10 -6 4 -10 -20 -16 -22 -5 -27 -9 -15 -12 9 -2 17 -9 17
-14 0 -12 -24 -11 -36 1 -8 8 -15 6 -25 -6 -12 -15 -12 -16 10 -9 14 4 21 3
18 -2 -4 -6 4 -8 18 -5 16 3 25 11 25 23 0 17 15 24 45 20 6 -1 1 6 -9 14 -11
8 -25 15 -30 15 -6 0 -5 -4 2 -9z"/>
<path d="M388 1813 c7 -3 16 -2 19 1 4 3 -2 6 -13 5 -11 0 -14 -3 -6 -6z"/>
<path d="M1067 1789 c-15 -11 -60 -29 -101 -39 -41 -10 -79 -21 -85 -25 -6 -3
-11 -2 -11 4 0 5 6 12 13 14 9 4 9 6 -1 6 -7 1 -31 -8 -52 -19 -22 -11 -86
-36 -142 -54 -134 -45 -168 -59 -168 -68 0 -4 22 1 49 12 27 10 59 16 72 14
17 -4 20 -3 10 4 -10 7 -5 13 23 22 21 7 46 10 57 7 11 -3 19 0 19 6 0 7 5 5
10 -3 6 -10 10 -11 10 -3 0 15 77 56 90 48 11 -7 145 21 180 38 28 13 78 57
64 57 -5 0 -21 -10 -37 -21z"/>
<path d="M5560 1801 c0 -5 9 -11 21 -14 16 -4 18 -3 8 9 -13 16 -29 19 -29 5z"/>
<path d="M820 1790 c0 -5 5 -10 10 -10 6 0 10 5 10 10 0 6 -4 10 -10 10 -5 0
-10 -4 -10 -10z"/>
<path d="M5635 1790 c11 -5 27 -9 35 -9 9 0 8 4 -5 9 -11 5 -27 9 -35 9 -9 0
-8 -4 5 -9z"/>
<path d="M337 1776 c-4 -10 -1 -13 9 -9 7 3 14 9 14 14 0 14 -17 10 -23 -5z"/>
<path d="M588 1783 c6 -2 18 -2 25 0 6 3 1 5 -13 5 -14 0 -19 -2 -12 -5z"/>
<path d="M795 1780 c-3 -5 -1 -10 4 -10 6 0 11 5 11 10 0 6 -2 10 -4 10 -3 0
-8 -4 -11 -10z"/>
<path d="M945 1780 c3 -5 8 -10 11 -10 2 0 4 5 4 10 0 6 -5 10 -11 10 -5 0 -7
-4 -4 -10z"/>
<path d="M5554 1775 c11 -8 25 -15 30 -15 6 0 2 7 -8 15 -11 8 -25 15 -30 15
-6 0 -2 -7 8 -15z"/>
<path d="M550 1769 c0 -5 5 -7 10 -4 6 3 10 8 10 11 0 2 -4 4 -10 4 -5 0 -10
-5 -10 -11z"/>
<path d="M680 1770 c-13 -8 -13 -10 2 -10 9 0 20 5 23 10 8 13 -5 13 -25 0z"/>
<path d="M840 1770 l-25 -8 28 -1 c15 -1 27 4 27 9 0 6 -1 10 -2 9 -2 -1 -14
-5 -28 -9z"/>
<path d="M5695 1770 c3 -5 14 -10 23 -10 15 0 15 2 2 10 -20 13 -33 13 -25 0z"/>
<path d="M6336 1756 c-6 -26 23 -123 49 -159 15 -21 16 -20 13 28 -1 28 -11
65 -20 83 -10 18 -18 39 -18 47 0 25 -18 26 -24 1z"/>
<path d="M730 1750 c-9 -6 -10 -10 -3 -10 6 0 15 5 18 10 8 12 4 12 -15 0z"/>
<path d="M790 1750 c-9 -6 -10 -10 -3 -10 6 0 15 5 18 10 8 12 4 12 -15 0z"/>
<path d="M1078 1743 c7 -3 16 -2 19 1 4 3 -2 6 -13 5 -11 0 -14 -3 -6 -6z"/>
<path d="M5772 1736 c8 -8 23 -15 33 -17 11 -2 22 -13 25 -24 5 -19 6 -20 22
-4 15 16 14 18 -15 29 -18 6 -40 16 -49 21 -25 13 -32 11 -16 -5z"/>
<path d="M668 1723 c-14 -14 -20 -14 -33 -3 -13 11 -22 9 -57 -17 -38 -27 -59
-63 -37 -63 5 0 9 9 9 21 0 11 5 17 10 14 6 -3 10 -1 10 4 0 6 5 11 11 11 6 0
9 -7 5 -15 -8 -21 0 -19 25 6 l21 21 -22 -7 c-15 -5 -20 -4 -16 4 9 14 43 14
48 1 2 -7 15 -6 36 2 18 7 31 17 29 22 -6 17 -22 17 -39 -1z"/>
<path d="M735 1730 c-16 -7 -17 -9 -3 -9 9 -1 20 4 23 9 7 11 7 11 -20 0z"/>
<path d="M5590 1725 c0 -8 4 -15 10 -15 5 0 7 7 4 15 -4 8 -8 15 -10 15 -2 0
-4 -7 -4 -15z"/>
<path d="M263 1718 c-12 -6 -24 -17 -27 -24 -10 -26 17 -14 43 19 15 19 14 20
-16 5z"/>
<path d="M5648 1713 c7 -3 16 -2 19 1 4 3 -2 6 -13 5 -11 0 -14 -3 -6 -6z"/>
<path d="M320 1700 c0 -5 5 -10 11 -10 5 0 7 5 4 10 -3 6 -8 10 -11 10 -2 0
-4 -4 -4 -10z"/>
<path d="M820 1690 c-8 -5 -10 -10 -5 -10 6 0 17 5 25 10 8 5 11 10 5 10 -5 0
-17 -5 -25 -10z"/>
<path d="M5553 1681 c-10 -15 -6 -21 23 -35 19 -9 46 -16 60 -16 14 0 23 -3
21 -7 -3 -5 6 -8 19 -8 31 0 31 9 -1 23 -14 6 -25 16 -25 21 0 5 -9 11 -20 14
-11 3 -24 6 -28 7 -4 1 -14 6 -23 10 -10 6 -19 3 -26 -9z m80 -21 c8 0 8 -3 1
-10 -12 -12 -44 -3 -44 12 0 6 7 7 16 4 9 -3 21 -6 27 -6z"/>
<path d="M5676 1671 c-3 -5 1 -14 8 -20 12 -10 13 -8 9 8 -6 23 -9 25 -17 12z"/>
<path d="M945 1659 c7 -10 -43 -40 -63 -38 -23 3 -72 -18 -72 -31 0 -8 6 -7
20 0 11 6 35 12 53 13 18 2 45 14 60 27 30 27 34 37 12 37 -8 0 -12 -4 -10 -8z"/>
<path d="M5958 1663 c6 -2 18 -2 25 0 6 3 1 5 -13 5 -14 0 -19 -2 -12 -5z"/>
<path d="M415 1649 c8 -11 -27 -45 -56 -54 -11 -4 -19 -15 -19 -26 0 -12 -7
-19 -18 -19 -10 0 -25 -9 -35 -20 -15 -18 -50 -25 -98 -21 -14 2 -57 -36 -48
-42 65 -51 140 -74 160 -51 16 19 3 30 -16 14 -9 -7 -18 -10 -22 -7 -3 4 1 9
10 13 12 4 15 13 11 29 -4 16 0 27 15 37 12 8 18 18 14 21 -3 4 -1 7 6 7 15 0
42 26 35 33 -3 3 12 17 34 32 33 22 44 25 61 15 15 -8 21 -8 21 0 0 6 4 9 9 6
5 -3 14 1 21 9 8 9 8 15 2 15 -6 0 -13 -6 -15 -12 -3 -7 -6 -4 -7 7 -1 18 -1
19 -11 3 -12 -22 -25 -23 -32 -4 -4 10 -1 13 9 9 7 -3 14 -1 14 4 0 5 -11 10
-26 11 -15 1 -23 -2 -19 -9z m-168 -175 c2 -5 -8 -9 -21 -9 -19 0 -22 3 -14
13 12 14 30 12 35 -4z"/>
<path d="M710 1645 c0 -8 2 -15 4 -15 2 0 6 7 10 15 3 8 1 15 -4 15 -6 0 -10
-7 -10 -15z"/>
<path d="M6010 1650 c0 -5 -8 -7 -17 -4 -17 5 -17 5 -1 -6 9 -6 15 -17 12 -25
-4 -8 -1 -15 6 -15 7 0 19 -8 26 -17 12 -16 15 -16 24 -3 8 13 10 13 10 -2 0
-9 10 -24 22 -32 30 -22 36 -11 7 13 -13 11 -18 20 -11 21 6 0 12 -5 12 -11 0
-7 12 -9 35 -5 27 5 37 3 41 -9 3 -8 14 -15 24 -15 10 0 20 -7 24 -15 3 -8 11
-15 17 -15 7 0 20 -7 29 -15 16 -14 18 -14 24 1 4 11 2 15 -7 11 -18 -7 -51
19 -41 34 4 7 3 10 -4 6 -13 -9 -44 2 -37 13 3 4 -7 11 -23 15 -40 12 -62 13
-56 3 9 -15 -6 -8 -28 11 l-20 20 23 -6 c32 -8 24 -2 -38 30 -29 15 -53 23
-53 17z m41 -28 c-7 -2 -18 1 -23 6 -8 8 -4 9 13 5 13 -4 18 -8 10 -11z"/>
<path d="M235 1629 c-4 -6 -5 -12 -2 -15 2 -3 7 2 10 11 7 17 1 20 -8 4z"/>
<path d="M5719 1627 c6 -8 8 -17 4 -20 -3 -4 1 -7 10 -7 10 0 17 6 17 13 0 8
4 7 11 -3 9 -12 10 -12 5 3 -3 10 -6 22 -6 25 0 4 -5 0 -11 -8 -8 -11 -12 -12
-16 -2 -2 6 -9 12 -15 12 -7 0 -7 -5 1 -13z"/>
<path d="M736 1611 c-3 -4 6 -6 19 -3 14 2 25 6 25 8 0 8 -39 4 -44 -5z"/>
<path d="M565 1600 c-3 -6 1 -7 9 -4 18 7 21 14 7 14 -6 0 -13 -4 -16 -10z"/>
<path d="M425 1590 c-3 -6 1 -7 9 -4 18 7 21 14 7 14 -6 0 -13 -4 -16 -10z"/>
<path d="M470 1584 c-25 -15 -25 -15 -1 -8 17 4 21 3 16 -6 -5 -9 -4 -11 4 -6
6 4 8 12 5 18 -5 8 -1 9 10 5 10 -4 15 -3 11 3 -8 13 -15 12 -45 -6z"/>
<path d="M723 1583 c-47 -23 -41 -35 7 -15 22 9 40 20 40 25 0 10 -10 8 -47
-10z"/>
<path d="M275 1580 c-3 -5 1 -10 9 -10 9 0 16 5 16 10 0 6 -4 10 -9 10 -6 0
-13 -4 -16 -10z"/>
<path d="M380 1575 c-14 -16 -10 -18 14 -9 9 3 16 10 16 15 0 14 -16 11 -30
-6z"/>
<path d="M598 1583 c7 -3 16 -2 19 1 4 3 -2 6 -13 5 -11 0 -14 -3 -6 -6z"/>
<path d="M5234 1579 c-9 -15 -5 -17 66 -22 36 -2 55 -2 42 0 -13 2 -26 11 -29
19 -4 12 -8 12 -20 2 -11 -9 -19 -9 -33 0 -13 8 -21 8 -26 1z"/>
<path d="M522 1551 c-17 -17 -32 -36 -32 -43 0 -8 5 -6 11 4 5 10 27 29 47 43
20 14 30 25 22 25 -9 0 -30 -13 -48 -29z"/>
<path d="M634 1572 c3 -6 -12 -17 -39 -28 -25 -9 -45 -22 -45 -27 0 -7 4 -7
12 1 7 7 20 12 29 12 9 0 27 8 40 18 17 15 19 21 9 27 -8 5 -11 4 -6 -3z"/>
<path d="M835 1569 c-16 -5 -38 -7 -47 -5 -10 2 -18 0 -18 -5 0 -5 -8 -9 -19
-9 -10 0 -31 -5 -48 -10 -34 -12 -41 -41 -9 -36 12 2 15 1 9 -1 -7 -3 -13 -8
-13 -12 0 -9 77 -8 86 2 4 4 19 7 33 8 14 0 35 4 46 9 20 10 -3 8 -90 -5 -27
-5 -34 -3 -29 8 3 8 15 14 27 14 53 1 62 3 48 12 -9 6 -3 10 20 13 19 3 35 2
37 -3 2 -4 11 -3 21 3 13 8 23 8 37 -1 17 -11 15 -12 -11 -6 -20 4 -25 2 -16
-3 11 -8 11 -10 0 -15 -30 -12 16 -5 51 7 l34 13 -32 6 c-19 4 -31 11 -27 17
8 12 -48 12 -90 -1z"/>
<path d="M5448 1563 c7 -3 16 -2 19 1 4 3 -2 6 -13 5 -11 0 -14 -3 -6 -6z"/>
<path d="M251 1546 c-8 -9 -11 -19 -7 -23 9 -9 29 13 24 27 -2 8 -8 7 -17 -4z"/>
<path d="M400 1544 c0 -8 -4 -12 -10 -9 -6 3 -7 -1 -4 -9 5 -12 10 -13 26 -5
15 8 17 13 7 25 -15 18 -19 18 -19 -2z"/>
<path d="M5548 1533 c7 -3 16 -2 19 1 4 3 -2 6 -13 5 -11 0 -14 -3 -6 -6z"/>
<path d="M5750 1528 c0 -10 6 -18 14 -18 8 0 23 -2 33 -5 10 -3 7 0 -7 7 -14
7 -28 17 -32 23 -5 6 -8 3 -8 -7z"/>
<path d="M347 1524 c-9 -9 4 -35 14 -28 5 3 9 12 9 20 0 14 -12 19 -23 8z"/>
<path d="M640 1520 c0 -5 5 -10 10 -10 6 0 10 5 10 10 0 6 -4 10 -10 10 -5 0
-10 -4 -10 -10z"/>
<path d="M5305 1520 c-3 -6 1 -7 9 -4 10 4 16 1 16 -8 0 -18 36 -39 55 -32 8
3 15 1 15 -5 0 -6 -7 -11 -15 -11 -8 0 -15 -5 -15 -11 0 -7 8 -6 23 4 20 13
28 13 62 1 24 -8 41 -10 43 -4 6 16 32 11 32 -5 0 -13 3 -13 20 -3 11 7 20 15
20 18 0 3 -29 14 -65 24 -35 10 -66 23 -69 30 -3 7 -5 6 -5 -2 -1 -7 -6 -10
-12 -6 -6 3 -16 0 -21 -7 -7 -10 -8 -8 -5 9 6 26 1 28 -19 7 -9 -8 -20 -15
-25 -15 -5 0 -9 7 -9 15 0 17 -25 20 -35 5z"/>
<path d="M5491 1514 c0 -11 3 -14 6 -6 3 7 2 16 -1 19 -3 4 -6 -2 -5 -13z"/>
<path d="M5588 1523 c7 -3 16 -2 19 1 4 3 -2 6 -13 5 -11 0 -14 -3 -6 -6z"/>
<path d="M6320 1525 c0 -3 12 -10 26 -15 14 -6 22 -15 18 -21 -5 -8 -9 -8 -14
1 -5 8 -10 9 -14 2 -9 -15 13 -26 28 -13 14 12 26 5 26 -15 0 -8 -7 -11 -17
-8 -15 5 -16 4 -3 -5 24 -17 30 -13 30 20 0 25 -6 32 -35 45 -37 15 -45 17
-45 9z"/>
<path d="M605 1510 c-3 -5 1 -10 9 -10 9 0 16 5 16 10 0 6 -4 10 -9 10 -6 0
-13 -4 -16 -10z"/>
<path d="M5701 1497 c-1 -19 3 -27 11 -25 7 3 20 -5 30 -16 16 -19 17 -19 18
-3 0 15 3 16 20 7 11 -6 18 -15 15 -21 -4 -5 1 -9 9 -9 9 0 16 4 16 9 0 5 3
17 6 25 4 12 1 16 -12 14 -39 -4 -103 15 -107 31 -3 9 -5 3 -6 -12z"/>
<path d="M5227 1504 c-4 -4 -7 -14 -7 -23 0 -11 3 -12 11 -4 6 6 10 16 7 23
-2 6 -7 8 -11 4z"/>
<path d="M548 1493 c-10 -2 -18 -8 -18 -13 0 -5 14 -4 30 1 45 16 36 25 -12
12z"/>
<path d="M607 1481 c-46 -22 -38 -35 9 -15 19 8 39 12 44 9 6 -4 10 -2 10 3 0
19 -27 20 -63 3z"/>
<path d="M5540 1490 c0 -5 5 -10 10 -10 6 0 10 5 10 10 0 6 -4 10 -10 10 -5 0
-10 -4 -10 -10z"/>
<path d="M311 1481 c-10 -6 -10 -10 -1 -16 13 -8 24 -1 19 14 -3 6 -10 7 -18
2z"/>
<path d="M500 1475 c0 -10 -5 -13 -12 -9 -7 4 -8 3 -4 -4 7 -12 36 -5 36 8 0
5 -4 12 -10 15 -5 3 -10 -1 -10 -10z"/>
<path d="M5253 1477 c2 -7 14 -11 26 -9 13 2 28 -4 35 -14 9 -11 19 -15 31
-10 17 6 16 8 -8 21 -38 19 -89 27 -84 12z"/>
<path d="M5590 1468 c0 -9 -8 -22 -17 -27 -17 -10 -16 -11 2 -12 11 -1 23 -1
28 0 4 0 7 -2 7 -6 0 -5 12 -9 28 -10 15 -1 56 -8 92 -17 36 -8 78 -18 94 -22
21 -5 27 -4 22 5 -4 6 -14 11 -22 11 -8 0 -14 4 -14 9 0 8 -75 26 -92 22 -5 0
-8 5 -8 13 0 12 -7 13 -32 5 -41 -11 -48 -11 -25 2 24 14 13 27 -19 21 -16 -3
-29 1 -35 9 -7 11 -9 11 -9 -3z"/>
<path d="M6207 1474 c-3 -3 -3 -13 0 -21 4 -11 8 -11 13 -3 5 9 15 8 39 -4 17
-9 31 -20 31 -25 0 -5 9 -11 20 -14 11 -3 20 -1 20 4 0 5 -4 9 -8 9 -5 0 -17
8 -28 18 -16 14 -67 42 -78 42 -1 0 -5 -3 -9 -6z"/>
<path d="M0 1146 l0 -316 280 0 c180 0 280 4 280 10 0 6 10 10 23 11 12 0 1 7
-28 16 -27 8 -55 22 -62 31 -7 10 -13 13 -14 7 0 -5 -4 1 -8 14 -4 14 -24 34
-46 47 -22 12 -41 29 -43 38 -2 9 -7 16 -11 16 -9 0 -37 27 -85 84 -21 25 -43
43 -47 40 -5 -3 -9 -1 -9 5 0 5 -11 22 -25 37 -14 15 -25 33 -25 40 0 8 -5 14
-11 14 -7 0 -10 12 -7 29 3 23 -1 32 -18 42 -28 15 -39 49 -16 50 11 0 12 2 5
6 -7 2 -13 11 -13 19 0 8 -7 14 -15 14 -8 0 -15 -6 -15 -12 0 -9 -3 -10 -8 -2
-4 6 -17 16 -30 23 -12 7 -21 20 -20 29 2 9 -5 18 -14 20 -17 3 -18 -17 -18
-312z m557 -292 c-3 -3 -12 -4 -19 -1 -8 3 -5 6 6 6 11 1 17 -2 13 -5z"/>
<path d="M5230 1436 c-6 -8 -19 -12 -28 -9 -14 5 -13 2 3 -14 11 -11 26 -18
33 -15 6 2 12 -1 12 -7 0 -6 3 -10 8 -10 27 4 44 -2 38 -16 -3 -9 0 -15 9 -15
11 0 12 6 5 24 -5 13 -6 27 -2 31 4 4 -7 4 -23 0 -20 -4 -26 -4 -16 3 9 7 10
12 2 16 -6 4 -11 2 -11 -3 0 -6 -7 -11 -15 -11 -13 0 -14 4 -5 20 13 23 8 26
-10 6z"/>
<path d="M442 1431 c-11 -7 -10 -9 3 -14 9 -4 13 -3 10 2 -3 5 3 12 12 14 13
3 14 5 3 6 -8 0 -21 -3 -28 -8z"/>
<path d="M5440 1425 c14 -8 19 -14 13 -15 -22 0 -14 -16 7 -16 13 0 19 5 15
14 -3 10 4 12 33 7 26 -4 31 -3 17 3 -11 5 -40 12 -65 15 -43 5 -44 5 -20 -8z"/>
<path d="M6232 1427 c-8 -10 -6 -13 11 -14 12 0 16 1 9 4 -6 3 -10 9 -6 14 8
14 -2 11 -14 -4z"/>
<path d="M6346 1424 c-9 -23 -1 -28 24 -14 18 10 20 14 9 21 -20 12 -26 11
-33 -7z"/>
<path d="M362 1414 c-23 -16 -21 -34 3 -34 8 0 12 6 9 14 -8 22 17 31 32 12 7
-10 18 -15 25 -11 8 6 4 12 -12 21 -31 17 -30 17 -57 -2z"/>
<path d="M823 1423 c-13 -2 -23 -9 -23 -14 0 -10 32 -4 60 12 13 7 13 8 0 7
-8 0 -25 -3 -37 -5z"/>
<path d="M5310 1426 c0 -2 13 -6 29 -8 17 -2 28 -1 25 4 -5 8 -54 12 -54 4z"/>
<path d="M464 1398 c-44 -33 -49 -38 -38 -38 11 0 83 59 73 60 -4 0 -19 -10
-35 -22z"/>
<path d="M557 1413 c-10 -9 -9 -33 1 -33 4 0 8 9 8 20 0 23 0 22 -9 13z"/>
<path d="M5395 1410 c3 -5 8 -10 11 -10 2 0 4 5 4 10 0 6 -5 10 -11 10 -5 0
-7 -4 -4 -10z"/>
<path d="M6085 1410 c-7 -11 2 -30 13 -30 4 0 8 9 8 20 0 21 -11 26 -21 10z"/>
<path d="M610 1400 c0 -5 5 -10 10 -10 6 0 10 5 10 10 0 6 -4 10 -10 10 -5 0
-10 -4 -10 -10z"/>
<path d="M768 1403 c-9 -2 -19 -10 -22 -18 -4 -12 -1 -12 19 -3 14 6 25 15 25
20 0 4 -1 7 -2 7 -2 -1 -10 -3 -20 -6z"/>
<path d="M6263 1393 c9 -2 17 -8 17 -13 0 -4 7 -10 15 -14 12 -4 13 -2 2 14
-6 11 -21 19 -32 19 -17 -1 -17 -2 -2 -6z"/>
<path d="M505 1380 c-3 -5 -1 -10 4 -10 6 0 11 5 11 10 0 6 -2 10 -4 10 -3 0
-8 -4 -11 -10z"/>
<path d="M5600 1381 c0 -10 42 -23 49 -15 7 6 -20 24 -36 24 -7 0 -13 -4 -13
-9z"/>
<path d="M640 1373 c-32 -5 -83 -42 -58 -43 9 0 18 5 20 10 2 6 16 12 31 14
15 1 33 8 39 14 7 7 8 11 3 11 -6 -1 -21 -4 -35 -6z"/>
<path d="M5340 1365 c-9 -10 -9 -15 -1 -15 6 0 11 -7 11 -15 0 -13 4 -12 22 5
17 15 24 17 31 8 6 -10 10 -10 13 -1 3 7 12 9 20 6 8 -3 14 1 14 9 0 17 -56
13 -79 -6 -11 -8 -13 -8 -8 1 11 18 -9 25 -23 8z"/>
<path d="M6173 1368 c2 -7 11 -12 21 -10 19 3 22 -14 4 -21 -8 -4 -7 -6 3 -6
16 -1 34 -27 31 -43 -3 -12 6 -10 33 8 15 10 25 12 25 5 0 -6 -8 -11 -17 -12
-11 0 -13 -3 -5 -6 6 -2 10 -9 6 -14 -3 -5 0 -9 6 -9 11 0 23 25 20 44 -1 5 4
12 11 17 8 4 10 12 5 16 -5 4 -11 2 -13 -4 -3 -7 -13 -13 -24 -13 -12 0 -16 5
-13 15 4 8 1 15 -5 15 -6 0 -11 -4 -11 -10 0 -5 -7 -10 -15 -10 -8 0 -15 7
-15 15 0 8 -9 19 -19 25 -26 13 -34 13 -28 -2z"/>
<path d="M759 1359 c-8 -5 -26 -9 -41 -9 -35 0 -78 -20 -78 -35 0 -17 69 -30
83 -16 7 7 5 12 -6 17 -9 3 -14 10 -11 16 4 5 13 3 23 -6 18 -16 56 -15 87 2
16 10 16 11 2 12 -9 0 -23 6 -31 14 -9 9 -19 11 -28 5z m1 -23 c0 -3 -4 -8
-10 -11 -5 -3 -10 -1 -10 4 0 6 5 11 10 11 6 0 10 -2 10 -4z m-50 -26 c12 -8
12 -10 -5 -9 -11 0 -29 4 -40 9 -18 8 -18 9 5 9 14 0 32 -4 40 -9z"/>
<path d="M5860 1354 c0 -10 -6 -14 -15 -10 -8 3 -15 1 -15 -4 0 -6 9 -10 20
-10 11 0 20 2 20 4 0 2 3 11 6 20 3 9 1 16 -5 16 -6 0 -11 -7 -11 -16z"/>
<path d="M5910 1345 c0 -8 7 -15 16 -15 14 0 14 3 4 15 -7 8 -14 15 -16 15 -2
0 -4 -7 -4 -15z"/>
<path d="M488 1343 c7 -3 16 -2 19 1 4 3 -2 6 -13 5 -11 0 -14 -3 -6 -6z"/>
<path d="M6000 1342 c0 -5 9 -17 20 -27 23 -21 27 -4 4 19 -17 18 -24 20 -24
8z"/>
<path d="M5286 1331 c-4 -5 -2 -12 3 -15 5 -4 12 -2 15 3 4 5 2 12 -3 15 -5 4
-12 2 -15 -3z"/>
<path d="M5950 1310 c0 -5 5 -10 10 -10 6 0 10 5 10 10 0 6 -4 10 -10 10 -5 0
-10 -4 -10 -10z"/>
<path d="M5997 1275 c-4 -8 3 -10 19 -7 29 5 30 8 5 15 -11 3 -22 -1 -24 -8z"/>
<path d="M815 1270 c-19 -7 -19 -8 5 -19 18 -8 33 -9 50 -2 l25 10 -27 0 c-14
1 -28 5 -30 10 -1 4 -12 5 -23 1z"/>
<path d="M6267 1243 c-4 -3 -7 -11 -7 -17 0 -6 5 -5 12 2 6 6 9 14 7 17 -3 3
-9 2 -12 -2z"/>
<path d="M6136 1205 c-3 -8 -1 -15 4 -15 13 0 22 18 11 24 -5 3 -11 -1 -15 -9z"/>
<path d="M5980 1141 c0 -6 5 -13 12 -17 6 -4 8 -3 4 4 -3 5 0 13 6 15 8 3 6 6
-4 6 -10 1 -18 -3 -18 -8z"/>
<path d="M5260 1090 c-13 -8 -12 -10 3 -10 9 0 17 5 17 10 0 12 -1 12 -20 0z"/>
<path d="M5600 1092 c0 -7 -8 -12 -17 -12 -15 0 -16 -2 -3 -10 10 -6 17 -4 23
6 5 9 6 18 3 21 -3 4 -6 1 -6 -5z"/>
<path d="M5725 1060 c4 -6 11 -8 16 -5 5 4 9 1 9 -4 0 -6 5 -11 11 -11 8 0 8
5 -1 15 -14 17 -45 21 -35 5z"/>
<path d="M5680 1040 c-13 -8 -12 -10 3 -10 9 0 17 5 17 10 0 12 -1 12 -20 0z"/>
<path d="M5504 1028 c-7 -11 58 -10 75 1 10 6 0 9 -28 8 -24 -1 -45 -5 -47 -9z"/>
<path d="M5403 1023 c9 -2 23 -2 30 0 6 3 -1 5 -18 5 -16 0 -22 -2 -12 -5z"/>
<path d="M5478 1003 c7 -3 16 -2 19 1 4 3 -2 6 -13 5 -11 0 -14 -3 -6 -6z"/>
<path d="M5413 923 c24 -6 22 -12 -20 -55 -26 -27 -32 -38 -21 -38 9 0 25 10
35 23 10 13 27 28 38 35 11 6 14 12 8 12 -7 0 -13 5 -13 11 0 7 11 8 30 4 17
-4 30 -3 30 2 0 4 -24 9 -53 10 -28 1 -44 -1 -34 -4z"/>
<path d="M3406 851 c-4 -7 -5 -15 -2 -18 9 -9 19 4 14 18 -4 11 -6 11 -12 0z"/>
<path d="M5290 840 c0 -5 5 -10 10 -10 6 0 10 5 10 10 0 6 -4 10 -10 10 -5 0
-10 -4 -10 -10z"/>
<path d="M5223 833 c9 -2 23 -2 30 0 6 3 -1 5 -18 5 -16 0 -22 -2 -12 -5z"/>
</g>
</svg>
